<svg id="Capa_1" data-name="Capa 1" xmlns="http://www.w3.org/2000/svg" xmlns:xlink="http://www.w3.org/1999/xlink" viewBox="0 0 488.92 669.25"><defs><style>.cls-1,.cls-11,.cls-38,.cls-6,.cls-65,.cls-7,.cls-73,.cls-83{fill:#ffdccb;}.cls-1,.cls-11,.cls-42,.cls-43,.cls-59,.cls-6,.cls-62,.cls-63,.cls-64,.cls-65,.cls-7,.cls-71,.cls-73,.cls-83,.cls-84,.cls-85{stroke:#c96f6e;}.cls-1,.cls-10,.cls-11,.cls-12,.cls-13,.cls-14,.cls-15,.cls-18,.cls-2,.cls-22,.cls-23,.cls-24,.cls-28,.cls-32,.cls-33,.cls-34,.cls-35,.cls-36,.cls-37,.cls-4,.cls-42,.cls-43,.cls-48,.cls-5,.cls-53,.cls-57,.cls-59,.cls-6,.cls-62,.cls-63,.cls-64,.cls-65,.cls-69,.cls-7,.cls-71,.cls-73,.cls-76,.cls-8,.cls-81,.cls-83,.cls-84,.cls-85,.cls-87,.cls-88,.cls-92,.cls-94,.cls-95{stroke-miterlimit:10;}.cls-1,.cls-42{stroke-width:1.15px;}.cls-12,.cls-13,.cls-2,.cls-45{fill:#7b3c35;}.cls-12,.cls-13,.cls-2,.cls-48,.cls-87,.cls-92,.cls-94{stroke:#63241f;}.cls-2,.cls-48{stroke-width:1.05px;}.cls-3{fill:#fffbf2;}.cls-14,.cls-4,.cls-5,.cls-9{fill:#150000;}.cls-4,.cls-5,.cls-53,.cls-57{stroke:#0c0506;}.cls-4,.cls-53{stroke-width:0.53px;}.cls-5,.cls-57{stroke-width:0.54px;}.cls-59,.cls-6{stroke-width:1.09px;}.cls-62,.cls-7{stroke-width:1.06px;}.cls-66,.cls-8{fill:#006d77;}.cls-69,.cls-8{stroke:#004649;}.cls-10,.cls-78{fill:#edefee;}.cls-10,.cls-81{stroke:#afafaf;}.cls-10,.cls-81,.cls-87{stroke-width:1.49px;}.cls-11,.cls-12,.cls-37,.cls-43,.cls-92{stroke-width:1.1px;}.cls-13,.cls-94{stroke-width:0.88px;}.cls-14,.cls-24,.cls-36,.cls-88{stroke:#bf6a55;}.cls-14,.cls-24{stroke-width:0.35px;}.cls-15,.cls-25{fill:#a97c4f;}.cls-15,.cls-28{stroke:#89513f;}.cls-15,.cls-28,.cls-32,.cls-33,.cls-95{stroke-width:3px;}.cls-16{fill:url(#Degradado_sin_nombre_3);}.cls-17{fill:red;}.cls-18,.cls-23,.cls-24,.cls-28,.cls-32,.cls-42,.cls-43,.cls-48,.cls-53,.cls-57,.cls-59,.cls-62,.cls-63,.cls-64,.cls-69,.cls-71,.cls-81,.cls-84,.cls-85,.cls-87,.cls-92,.cls-94{fill:none;}.cls-18{stroke:#fff;stroke-width:0.87px;}.cls-19{fill:#41444b;}.cls-20{clip-path:url(#clip-path);}.cls-21{clip-path:url(#clip-path-3);}.cls-22{fill:#da4666;}.cls-22,.cls-23{stroke:#8a1525;stroke-width:0.18px;}.cls-26{clip-path:url(#clip-path-4);}.cls-27{fill:#9b6637;opacity:0.46;}.cls-29{clip-path:url(#clip-path-5);}.cls-30{clip-path:url(#clip-path-6);}.cls-31{fill:#627886;}.cls-32,.cls-33{stroke:#516b77;}.cls-33{fill:#748c99;}.cls-34,.cls-35,.cls-44{fill:#5d1f1a;}.cls-34,.cls-35{stroke:#491310;}.cls-34{stroke-width:0.58px;}.cls-35{stroke-width:0.57px;}.cls-36{fill:#f69d7a;stroke-width:0.5px;}.cls-37,.cls-40{fill:#c96f6e;}.cls-37{stroke:#a34848;}.cls-39{clip-path:url(#clip-path-7);}.cls-41{fill:#8d4ec4;opacity:0.42;}.cls-46{clip-path:url(#clip-path-8);}.cls-47{fill:#b25c56;}.cls-49{fill:#ad91bc;opacity:0.36;}.cls-50{clip-path:url(#clip-path-9);}.cls-51{clip-path:url(#clip-path-10);}.cls-52{fill:#45b1ce;}.cls-54{clip-path:url(#clip-path-11);}.cls-55{clip-path:url(#clip-path-12);}.cls-56{fill:#67b09d;}.cls-58{clip-path:url(#clip-path-13);}.cls-60{clip-path:url(#clip-path-14);}.cls-61{clip-path:url(#clip-path-15);}.cls-63{stroke-width:0.97px;}.cls-64{stroke-width:1.11px;}.cls-65{stroke-width:1.06px;}.cls-67{clip-path:url(#clip-path-16);}.cls-68,.cls-76{fill:#004649;}.cls-70{clip-path:url(#clip-path-17);}.cls-71{stroke-width:0.99px;}.cls-72{clip-path:url(#clip-path-18);}.cls-73{stroke-width:1.11px;}.cls-74{clip-path:url(#clip-path-19);}.cls-75{fill:#00616b;}.cls-76{stroke:#013838;}.cls-77{clip-path:url(#clip-path-20);}.cls-79{clip-path:url(#clip-path-21);}.cls-80,.cls-82{fill:#afafaf;}.cls-80{opacity:0.57;}.cls-83,.cls-85{stroke-width:0.92px;}.cls-84{stroke-width:0.73px;}.cls-86{fill:#ffb2ae;}.cls-88{fill:#fccc9d;stroke-width:0.81px;}.cls-89{clip-path:url(#clip-path-22);}.cls-90{fill:#6ec0d3;}.cls-91{clip-path:url(#clip-path-23);}.cls-93{clip-path:url(#clip-path-24);}.cls-95{fill:#425563;stroke:#2e3d47;}</style><linearGradient id="Degradado_sin_nombre_3" x1="-5724.17" y1="581.47" x2="-5250.04" y2="581.47" gradientTransform="matrix(-1, 0, 0, 1, -4802.36, 0)" gradientUnits="userSpaceOnUse"><stop offset="0.24" stop-color="#8dc1d9"/><stop offset="0.72" stop-color="#c5efea"/></linearGradient><clipPath id="clip-path" transform="translate(-432.89 -143.72)"><path class="cls-9" d="M602.26,324.74A130.81,130.81,0,0,0,595.09,313a20.23,20.23,0,0,1-3-2.63,19.74,19.74,0,0,1-1.86-2.37,14.19,14.19,0,0,1-1.87-12.14l.69-1.17a24.71,24.71,0,0,1,.09-5.26s-4.69-4.89-4.66-7.38c0,0-6.44-12-3.94-11.6l16.78,17.75,1.45,5.58-.47-8.88-6.66-7.33c-8.88-5.76-21.57-25.28-20.32-26.15s23.3,21,24.46,22.31q5.18,4.9,10.36,9.77c1.87,7.89,3.3,16.11,5.17,24,.36.42,4.43,5.41,8,9.84"/></clipPath><clipPath id="clip-path-3" transform="translate(-432.89 -143.72)"><path class="cls-14" d="M562.58,266.39a4.1,4.1,0,0,0-1.4-4.86,7.66,7.66,0,0,0-6.64-1.21,20.09,20.09,0,0,1-9.1,3,21.57,21.57,0,0,1-13-3,6.67,6.67,0,0,0-4.5,0,3.8,3.8,0,0,0-2.49,4.52c2,6.81,9.76,11.68,18.57,11.78C552.29,276.71,559.84,272.58,562.58,266.39Z"/></clipPath><clipPath id="clip-path-4" transform="translate(-432.89 -143.72)"><path class="cls-15" d="M627.93,749.88c0,8,6,53.26,6,53.26s8.51,14,18.47,0l2.18-56.52Z"/></clipPath><clipPath id="clip-path-5" transform="translate(-432.89 -143.72)"><path class="cls-15" d="M808,739.38l16.28,46.68a12.16,12.16,0,0,0,6.35,7.1c3.07,1.39,7,1.91,9.94-1.88a10.85,10.85,0,0,0,2.08-8.36l-7.48-48.8Z"/></clipPath><clipPath id="clip-path-6" transform="translate(-432.89 -143.72)"><polygon class="cls-15" points="546.1 692 545.83 734.13 563.08 731.32 572.2 692 546.1 692"/></clipPath><clipPath id="clip-path-7" transform="translate(-432.89 -143.72)"><path class="cls-1" d="M630.14,362.87c-.08-.12-6.28-14.31-6.28-22.22,0-25.16,22.11-45.55,49.38-45.55s49.4,20.39,49.4,45.55a42.62,42.62,0,0,1-5.7,21.23c.16,2.48.26,14.07-12.39,26.66s-28.13,16.38-30.7,16.3c-3.58.08-16.74,0-28.39-9.38C630.27,383.25,630.12,365.35,630.14,362.87Z"/></clipPath><clipPath id="clip-path-8" transform="translate(-432.89 -143.72)"><path class="cls-2" d="M649.87,323.41c5.68,5.55,12.75,8.44,20.73,14.09a155.86,155.86,0,0,0,34,18.3c8.38-14.89,9.08-33.78,1.73-48.39-8.86-17.62-28-26.07-45.92-19.53-13.77-3.76-28,1.93-36.39,14.49-9.67,14.58-9.64,35.87.49,51.4,3.17-3.41,6.42-7.13,9.7-11.15C640.38,335,645.38,330.49,649.87,323.41Z"/></clipPath><clipPath id="clip-path-9" transform="translate(-432.89 -143.72)"><path class="cls-3" d="M658.89,363.19c0,5-5,10.06-12.16,10.06s-10.87-2.4-10.87-7.38,5.63-13.1,12.76-13.1S658.89,358.21,658.89,363.19Z"/></clipPath><clipPath id="clip-path-10" transform="translate(-432.89 -143.72)"><ellipse class="cls-4" cx="648.69" cy="360.1" rx="7.1" ry="7.95"/></clipPath><clipPath id="clip-path-11" transform="translate(-432.89 -143.72)"><path class="cls-3" d="M674.88,363.38c0,5.09,5.16,10.3,12.46,10.3s11.12-2.46,11.12-7.55-5.77-13.42-13.07-13.42S674.88,358.28,674.88,363.38Z"/></clipPath><clipPath id="clip-path-12" transform="translate(-432.89 -143.72)"><ellipse class="cls-5" cx="685.32" cy="360.21" rx="7.27" ry="8.14"/></clipPath><clipPath id="clip-path-13" transform="translate(-432.89 -143.72)"><path class="cls-6" d="M633.79,423.91c-5.15-.09-11.26,1.61-14.47,9.65-1,4.74-1.63,9.59-2.55,14.58q-1.23,6.8-2.35,13.9c-1.53,9.8-4.21,27-5.17,36.08.24,1,1,3.22,4.66,5.71,2.74,1.84,6.31,1.57,7.31,1.58a13,13,0,0,0,11.24-5.7c2.89-11,7-26.12,10.55-39.48,1.44-5.39,2.81-10.5,4-15"/></clipPath><clipPath id="clip-path-14" transform="translate(-432.89 -143.72)"><path class="cls-6" d="M618.22,552a132.39,132.39,0,0,1-1.82,14.42,17.38,17.38,0,0,1,.42,3.92,15.81,15.81,0,0,1-.28,3,14.31,14.31,0,0,1-7.67,10.08l-1.45.37a25.92,25.92,0,0,1-4.06,3.75s.11,6.72-1.8,8.51c0,0-3.18,1.94-4.92,0l-.87-13.12,3-5-6.34,6.77-.13,9.82c2.87,10.19-1.84,10.37-3.51,10.16s-2.78-8.48-2.77-10.18c-.34-4.71-.68-9.4-1-14.1,4.45-7,9.52-13.91,14-20.89,0-.55.5-7.31.72-13"/></clipPath><clipPath id="clip-path-15" transform="translate(-432.89 -143.72)"><path class="cls-7" d="M559.09,719.43s22.11,21.26,29.49-7.64c-.7-3-1.86-8.17-3.17-14.55-.92-4.44-2.83-14-4.77-25.87-8-49.17-7.45-75.37-18.13-85-9-8.11-24.39-7.87-30.2,3.6-2.48,4.9-1.83,14.43-.28,21.74,2.72,12.83,6.66,34.25,15.41,65.24,2.84,10,5.81,20.84,5.81,20.84C555.75,707,557.76,714.44,559.09,719.43Z"/></clipPath><clipPath id="clip-path-16" transform="translate(-432.89 -143.72)"><path class="cls-8" d="M593,726.44,601.18,760,545.3,773.27s-10.89-21.5,2.8-28.55a5.83,5.83,0,0,0,1.58-1.18l4.84-5.6,20.6-1.82a14,14,0,0,0,6.42-2.22Z"/></clipPath><clipPath id="clip-path-17" transform="translate(-432.89 -143.72)"><path class="cls-7" d="M579.76,730.76s17,25.5,30.43-1.15c0-3.12-.06-8.38,0-14.89.06-4.54.23-14.24.88-26.3,2.68-49.75,8.86-75.22.48-86.86-7.09-9.86-22.14-12.91-30.27-3-3.47,4.26-4.88,13.7-4.93,21.18-.09,13.11-.83,34.89,1.09,67,.62,10.4,1.21,21.6,1.21,21.6C579.17,717.85,579.53,725.6,579.76,730.76Z"/></clipPath><clipPath id="clip-path-18" transform="translate(-432.89 -143.72)"><path class="cls-8" d="M611.35,744.86l.83,34.56-57.42,1s-6-23.33,8.84-27.28a6,6,0,0,0,1.8-.81l5.92-4.45,20.52,2.64a14,14,0,0,0,6.74-.79Z"/></clipPath><clipPath id="clip-path-19" transform="translate(-432.89 -143.72)"><path class="cls-8" d="M710.09,449.64s-3.09,8-6.13,34l.86,22.3,9.78,24c-4.37,3.72-21.36,17.3-45.63,15.72-19.5-1.27-32.84-11.62-37.72-15.83L641,504.72l1.1-23.25s-16.54-14.65-3-40.26l67.89,2Z"/></clipPath><clipPath id="clip-path-20" transform="translate(-432.89 -143.72)"><path class="cls-8" d="M709.27,516.89a80.71,80.71,0,0,1,14.07,35.46c.84,6.19,1.69,12.47,0,20.1-3.8,17.21-15.57,19-30.55,41.81a161.22,161.22,0,0,0-14.47,29c-6.45,16.8-5.66,22.62-12.06,36.18a107.24,107.24,0,0,1-13.67,21.71c-11.06-.26-18.09-3.48-22.51-6.43-6.9-4.62-6.89-8.25-13.67-11.26-8.28-3.68-11.33.38-20.91-3.22-7.92-3-6.48-6-14.47-8.84-9.55-3.41-13.17.34-20.1-4-4.91-3.09-4.33-5.76-9.65-8-4-1.74-6.19-1-12.06-2.41a45,45,0,0,1-10.45-4c-5.91-14.14-15.66-44-2.41-70,7.84-15.41,22.79-24.36,52.26-41.81a489.67,489.67,0,0,1,58.6-29.58Z"/></clipPath><clipPath id="clip-path-21" transform="translate(-432.89 -143.72)"><path class="cls-10" d="M654,462.18a54.91,54.91,0,0,0,1.52,16.47c3.6,14.21,15.13,19.65,19.82,23.48C670,506.24,660,514,651.22,518.3a122.92,122.92,0,0,1-20.64,8c-30.07.79-50.83-12.06-52.12-28.52-.26-3.34.06-9.48,5.21-18A45.54,45.54,0,0,1,604.37,464a36.57,36.57,0,0,1,27.49.54,27,27,0,0,1,10.07-3.76A22.38,22.38,0,0,1,654,462.18Z"/></clipPath><clipPath id="clip-path-22" transform="translate(-432.89 -143.72)"><path class="cls-11" d="M649.05,509.62l-5.3-1.67a28.15,28.15,0,0,0-13.24-1.81c-.51-.21-3.42-1.22-5.17-1.95a18.44,18.44,0,0,0-4.34-1.51c-1.11-.2-2,.28-4.52.49-1.33.11-1.6.07-4,.22-.29.58-.91,3.24-.3,4a7,7,0,0,0,3.57,2.56,12.14,12.14,0,0,0,4.59.45,7.37,7.37,0,0,1,4.18,2.65,6.13,6.13,0,0,1-2.56,9.9l-8.39,2.45-6.23-1.91a5,5,0,0,0-1.86-2.76,4.25,4.25,0,0,0-5.12.4l3,6.6,7.33,3.89,5.53.75,5.88,2.81,1.9-.49,3.45,2,2.33-.6.14,0,3.47,1.29,6-3.42.56-.33,1-.66.67-.44,9.52-5.26,8-.84"/></clipPath><clipPath id="clip-path-23" transform="translate(-432.89 -143.72)"><path class="cls-12" d="M689,321.38s0,.86.09,2.42c.48,13.89,2.69,83.4-.83,93l12.84-7.13,2.54-16.57,1.51,16.57,8.28-5.08V382.2l4.26,18.3,6.21-3.33s16.88-33.17-4-83.41c0,0-21.1-23.95-36.81-22.79"/></clipPath><clipPath id="clip-path-24" transform="translate(-432.89 -143.72)"><path class="cls-13" d="M632.48,318s0,.84-.05,2.37c-.27,13.6-1.51,81.69.46,91.1l-7.18-7-1.42-16.23-.85,16.23-4.62-5V377.55l-2.38,17.92L613,392.21s-5.48-30.5,6.22-79.71c0,0,9.85-23.19,18.63-22.06"/></clipPath></defs><path class="cls-16" d="M878.93,391.38c-56.22-51-161.24-54.07-203.41-13.75C632.91,418.37,650.31,507.41,606.89,532c-2.55,1.44-12.58,6.79-27.22,15.54,0,0-23.08,13.78-42.64,27.37-44.42,30.86-74.64,51.86-85.25,82.79-14.17,41.29,12.72,82.51,16.05,87.46,54.6,81.1,208.21,73.23,284.77,58,50.13-10,112-22.31,134.13-65.59,21.83-42.75-19.09-68.9-3.8-142.19,11.68-56,40.43-63.91,38.82-111.62C921.52,477,919.07,427.79,878.93,391.38Z" transform="translate(-432.89 -143.72)"/><path class="cls-9" d="M611.47,397.9" transform="translate(-432.89 -143.72)"/><path class="cls-9" d="M592.35,571.39c3.66,4.14,5.26,15.66,5.47,23,.37,12.92-1,33.55-2.23,65.27-.41,10.26-.78,21.31-.78,21.31-.3,9.32-.51,17-.63,22.06,0,0-16.93,25.43-31.24-.62,0-3.08-.11-8.26-.33-14.68-.16-4.47-.54-14-1.47-25.9-3.82-49-10.9-77.12-2.55-88.75" transform="translate(-432.89 -143.72)"/><path class="cls-9" d="M583.37,611.88c-6,4.7-13.16,5.08-20.9-6.37-1.58-2.33-3.75-9.55-4.41-12.51-3.25-14.41-12.7-65.17-9.91-99.54,1.49-18.28-3.71-39.33,19.88-44.61,18.38-4.12,20.68,26.87,20.68,26.87s9.9,49.26,5.65,109.94C593.78,593.92,589,607.46,583.37,611.88Z" transform="translate(-432.89 -143.72)"/><path class="cls-9" d="M594.37,695.63s-10.21-8.77-32,4.68l-1.26,51.15,93.5-2.45S624,730,610,725.63a44.39,44.39,0,0,1-8.92-4.49c-3.54-2.82-5.23-5.9-5.56-8.77C595.48,712.37,594.15,706.64,594.37,695.63Z" transform="translate(-432.89 -143.72)"/><path class="cls-9" d="M505.13,330.25c-1.73,5.69-2.57,8.46-4.69,15.35-5.26,17.08-12.4,40.13-16.69,54.24-.56,1-4.25,7.07-10.81,6.24-.87-.12-4.07-.14-6.19-2.84a13.27,13.27,0,0,1-3.21-7.95c2.27-11.75,7.35-34,10.24-46.59q2.1-9.17,4.27-17.92,2.38-9.63,4.81-18.76c3.46-7.32,8.64-12.08,13.16-11.4C502.7,301.61,508.28,314.49,505.13,330.25Z" transform="translate(-432.89 -143.72)"/><path class="cls-9" d="M577.37,329.62c3.93,4.54,5.85,6.75,10.65,12.23,11.9,13.59,28,31.92,37.76,43.17,1,.65,7.11,4.68,13.69.91.87-.51,4.22-2,5.44-5.49,1.65-4.73.87-7.6.41-8.92-6.77-10-20.39-28.44-28.14-38.95q-5.62-7.63-11.17-14.84-6.1-7.92-12.06-15.36c-13.83-11.46-15.6-6.15-18.07-4.67C569.23,301.68,568.18,316.3,577.37,329.62Z" transform="translate(-432.89 -143.72)"/><path class="cls-9" d="M498.64,482l8.17-62.79c26.6-15.81,78.73-4.16,78.73-4.16,1.8,27.87,5.4,65.72,5.4,65.72-12.52-5.06-29.9,6.15-36.07,10.6a8.75,8.75,0,0,1-5.21,1.7l-9.36,0a13.82,13.82,0,0,1-7.36-2.18C525.19,485.92,505.89,474.93,498.64,482Z" transform="translate(-432.89 -143.72)"/><path class="cls-9" d="M520.36,291.26c.43,5.8.65,9.41-1.62,11.57-1.7,1.6-5.33,2.92-5.29,3h0c2.33.54,17.4,0,23.82.47a140.05,140.05,0,0,0,23.21-1.61c.52-.11-3.35-1.64-3.78-2-3.75-2.92-2.88-8.37-2.69-12a98.12,98.12,0,0,1,1.41-12.07,46,46,0,0,0-5.15.42c-1.15,0-4.31.31-12.69.1l-19.35.07A61.54,61.54,0,0,1,520.36,291.26Z" transform="translate(-432.89 -143.72)"/><path class="cls-9" d="M492.43,299.11l13.67,16.43-.72,22.67,1,87.62,79.33.28L584.48,341l.54-28.9,1.4-15.73A454.43,454.43,0,0,0,492.43,299.11Z" transform="translate(-432.89 -143.72)"/><path class="cls-9" d="M484.38,238.29c0-6.38,7.45-6,9.41-4.06,1.55,1.5,1.74,4.78,0,7.63a3.5,3.5,0,0,0-4.12.5c-1,1.27-.65,4,1.64,5.28" transform="translate(-432.89 -143.72)"/><path class="cls-9" d="M579.74,230.67h.44v24.92a29.18,29.18,0,0,1-29,29.29H523.21a29.66,29.66,0,0,1-29.54-29.78V230.67h.56a45.31,45.31,0,0,1-1.31-16.15A44.27,44.27,0,0,1,581.27,219,45.3,45.3,0,0,1,579.74,230.67Z" transform="translate(-432.89 -143.72)"/><path class="cls-9" d="M478.66,224.07l20.11,9.35s7.12,10.51,6.29,17.47a20.66,20.66,0,0,1-4.64,11s-9-.32-14.75-6.66-10.21-29.53-10.21-29.53S475.15,222.92,478.66,224.07Z" transform="translate(-432.89 -143.72)"/><path class="cls-9" d="M587.22,237.12c0-6.38-7.45-6-9.41-4.05-1.55,1.5-1.74,4.77,0,7.62a3.52,3.52,0,0,1,4.12.5c1,1.27.65,4-1.63,5.29" transform="translate(-432.89 -143.72)"/><path class="cls-9" d="M595,217.51l-20.11,9.36s-7.12,10.51-6.3,17.47a20.65,20.65,0,0,0,4.65,11s9-.31,14.74-6.65,10.21-29.53,10.21-29.53S598.45,216.37,595,217.51Z" transform="translate(-432.89 -143.72)"/><path class="cls-9" d="M467.49,205.93a29.3,29.3,0,0,0,8.18,11c1.46,1.19,5.93,4.55,14,5.76,11.25,1.69,43,1.26,85.4-2.17a35.27,35.27,0,0,0,8.24-5.47c8.48-7.52,11.41-17.3,12.45-21.79-1.3,1.29-6.56,6.16-14,5.8a17,17,0,0,1-6.69-1.77,26.32,26.32,0,0,0,6.47-14.23,31.34,31.34,0,0,0-.22-7.05,152.37,152.37,0,0,0-3-18.23,44.72,44.72,0,0,1-10.9,13.76,41.46,41.46,0,0,1-10.26,6.35c1.47-2.63,3-6.36,1.86-9.88s-4-4.14-5.14-7.23c-.93-2.46-.8-6.55,4.2-13.58-10.79,5.83-13.87,10.36-14.47,13.58a11.53,11.53,0,0,1-3,6.48,8.45,8.45,0,0,1-3.15,1.88c-.17-2.72-3.2-5.19-5.83-7.95-3.43-3.59-7.39-2.46-11.71-5.41-2.44-1.66-5.44-4.94-7.2-12.11-1.33,2.44-5.38,10.61-3.19,20.34a26.17,26.17,0,0,0,3.19,7.88,29.48,29.48,0,0,1-6.19-1.16,30.65,30.65,0,0,1-5.48-2.26,35.67,35.67,0,0,1-13.16-12.45c-.56,2.08-3,12.08,2.41,21.16,2.68,4.54,6.91,6.1,6.48,7.06-.29.64-2-.2-4.49,0-4.53.36-6.28,3.78-9.51,5.17-2.51,1.09-6.61,1.27-13.48-3.29a30.14,30.14,0,0,0,9.94,12.94c4.62,3.26,9.35,4.23,9.24,6-.06.91-1.39,2.08-7.25,3.18" transform="translate(-432.89 -143.72)"/><path class="cls-17" d="M539.92,246.39l-11.36-4.64L507.13,233c-.42,9.29,5.43,17.49,13.66,19.73A18.85,18.85,0,0,0,539.92,246.39Z" transform="translate(-432.89 -143.72)"/><path class="cls-17" d="M552.34,246.39l8.63-4.64L577.24,233c.32,9.29-4.12,17.49-10.37,19.73C561.7,254.58,556,252.09,552.34,246.39Z" transform="translate(-432.89 -143.72)"/><path class="cls-18" d="M529.81,266.82s12.31,5.46,28.37,0" transform="translate(-432.89 -143.72)"/><path class="cls-9" d="M542.12,572.37c3.56,4.22,4.88,15.78,4.92,23.15.06,12.93-1.75,33.52-3.8,65.2C542.58,671,542,682,542,682c-.53,9.3-.92,17-1.17,22,0,0-17.53,25-31.21-1.38,0-3.08.09-8.26,0-14.68-.05-4.47-.21-14-.85-25.94-2.64-49.08-9-77.36-.42-88.78" transform="translate(-432.89 -143.72)"/><path class="cls-9" d="M532.18,612.63c-6.09,4.55-13.28,4.75-20.74-6.88-1.53-2.38-3.52-9.64-4.12-12.62-2.9-14.48-11.13-65.46-7.51-99.75,1.92-18.24-2.77-39.41,20.94-44.11,18.48-3.67,20,27.37,20,27.37s8.71,49.48,3,110C543,594.92,537.91,608.34,532.18,612.63Z" transform="translate(-432.89 -143.72)"/><path class="cls-9" d="M541.16,696.62s-10-9-32,3.89l-2.49,51.12,93.54-.18S570,731.67,556,727a44.82,44.82,0,0,1-8.82-4.71c-3.47-2.9-5.08-6-5.34-8.9C541.87,713.38,540.67,707.62,541.16,696.62Z" transform="translate(-432.89 -143.72)"/><path class="cls-9" d="M611.47,397.9" transform="translate(-432.89 -143.72)"/><path class="cls-9" d="M592.35,571.39c3.66,4.14,5.26,15.66,5.47,23,.37,12.92-1,33.55-2.23,65.27-.41,10.26-.78,21.31-.78,21.31-.3,9.32-.51,17-.63,22.06,0,0-16.93,25.43-31.24-.62,0-3.08-.11-8.26-.33-14.68-.16-4.47-.54-14-1.47-25.9-3.82-49-10.9-77.12-2.55-88.75" transform="translate(-432.89 -143.72)"/><path class="cls-9" d="M583.37,611.88c-6,4.7-13.16,5.08-20.9-6.37-1.58-2.33-3.75-9.55-4.41-12.51-3.25-14.41-12.7-65.17-9.91-99.54,1.49-18.28-3.71-39.33,19.88-44.61,18.38-4.12,20.68,26.87,20.68,26.87s9.9,49.26,5.65,109.94C593.78,593.92,589,607.46,583.37,611.88Z" transform="translate(-432.89 -143.72)"/><path class="cls-9" d="M594.37,695.63s-10.21-8.77-32,4.68l-1.26,51.15,93.5-2.45S624,730,610,725.63a44.39,44.39,0,0,1-8.92-4.49c-3.54-2.82-5.23-5.9-5.56-8.77C595.48,712.37,594.15,706.64,594.37,695.63Z" transform="translate(-432.89 -143.72)"/><path class="cls-9" d="M498.64,482l8.17-62.79c26.6-15.81,78.73-4.16,78.73-4.16,1.8,27.87,5.4,65.72,5.4,65.72-12.52-5.06-29.9,6.15-36.07,10.6a8.75,8.75,0,0,1-5.21,1.7l-9.36,0a13.82,13.82,0,0,1-7.36-2.18C525.19,485.92,505.89,474.93,498.64,482Z" transform="translate(-432.89 -143.72)"/><path class="cls-9" d="M646.13,378.22a9.51,9.51,0,0,0,3.81-5.16,11.88,11.88,0,0,0-1.11-8.72A148.52,148.52,0,0,0,637.22,341a152.06,152.06,0,0,0-8.71-12.71c-14-16.78-19.53-27.33-24.71-25.79-2.16.65-6.1,3.64-6.75,5.67-.07,5.84,1.78,9,6.16,18.5,5.48,11.94,9.47,19.33,11.88,24.52a80.69,80.69,0,0,0,8.81,14.91,82.76,82.76,0,0,0,12.43,13.3C637.5,379.73,642.27,380.81,646.13,378.22Z" transform="translate(-432.89 -143.72)"/><path class="cls-19" d="M594.62,296l6.57-4.25-1.83-13.36c-5.45-2.77-22.83-15.66-28.28-18.42-.1.15,4.62,5.78,6,8.62.92,1.92,9.46,10,11.48,10.35l4.6,4.28-22.69-5.71a31,31,0,0,0,9.81,8.58l6.42,1.28c-.74-.19-13.47-2.79-17.55-2.62-.09.28,6.07,3.77,8.07,5.58.76.69,3.88.94,4.84,1l4.7.32S585.8,290.41,594.62,296Z" transform="translate(-432.89 -143.72)"/><path class="cls-9" d="M602.26,324.74A130.81,130.81,0,0,0,595.09,313a20.23,20.23,0,0,1-3-2.63,19.74,19.74,0,0,1-1.86-2.37,14.19,14.19,0,0,1-1.87-12.14l.69-1.17a24.71,24.71,0,0,1,.09-5.26s-4.69-4.89-4.66-7.38c0,0-6.44-12-3.94-11.6l16.78,17.75,1.45,5.58-.47-8.88-6.66-7.33c-8.88-5.76-21.57-25.28-20.32-26.15s23.3,21,24.46,22.31q5.18,4.9,10.36,9.77c1.87,7.89,3.3,16.11,5.17,24,.36.42,4.43,5.41,8,9.84" transform="translate(-432.89 -143.72)"/><g class="cls-20"><path class="cls-9" d="M604.2,326.41l-6.9-8.06" transform="translate(-432.89 -143.72)"/></g><path class="cls-9" d="M646.13,378.22a9.51,9.51,0,0,0,3.81-5.16,11.88,11.88,0,0,0-1.11-8.72A148.52,148.52,0,0,0,637.22,341a152.06,152.06,0,0,0-8.71-12.71c-14-16.78-19.53-27.33-24.71-25.79-2.16.65-6.1,3.64-6.75,5.67-.07,5.84,1.78,9,6.16,18.5,5.48,11.94,9.47,19.33,11.88,24.52a80.69,80.69,0,0,0,8.81,14.91,82.76,82.76,0,0,0,12.43,13.3C637.5,379.73,642.27,380.81,646.13,378.22Z" transform="translate(-432.89 -143.72)"/><path class="cls-9" d="M645.53,301.25s30.64,26.57,12.27,45.85-14.27,12.31-14.27,12.31l-32.17-44c9.32,12.48,24.65,14.93,31.85,8.5C648.36,319.3,649.36,310.12,645.53,301.25Z" transform="translate(-432.89 -143.72)"/><path class="cls-19" d="M594.62,296l6.57-4.25-1.83-13.36c-5.45-2.77-22.83-15.66-28.28-18.42-.1.15,4.62,5.78,6,8.62.92,1.92,9.46,10,11.48,10.35l4.6,4.28-22.69-5.71a31,31,0,0,0,9.81,8.58l6.42,1.28c-.74-.19-13.47-2.79-17.55-2.62-.09.28,6.07,3.77,8.07,5.58.76.69,3.88.94,4.84,1l4.7.32S585.8,290.41,594.62,296Z" transform="translate(-432.89 -143.72)"/><path class="cls-9" d="M602.26,324.74A130.81,130.81,0,0,0,595.09,313a20.23,20.23,0,0,1-3-2.63,19.74,19.74,0,0,1-1.86-2.37,14.19,14.19,0,0,1-1.87-12.14l.69-1.17a24.71,24.71,0,0,1,.09-5.26s-4.69-4.89-4.66-7.38c0,0-6.44-12-3.94-11.6l16.78,17.75,1.45,5.58-.47-8.88-6.66-7.33c-8.88-5.76-21.57-25.28-20.32-26.15s23.3,21,24.46,22.31q5.18,4.9,10.36,9.77c1.87,7.89,3.3,16.11,5.17,24,.36.42,4.43,5.41,8,9.84" transform="translate(-432.89 -143.72)"/><g class="cls-20"><path class="cls-9" d="M604.2,326.41l-6.9-8.06" transform="translate(-432.89 -143.72)"/></g><path class="cls-9" d="M520.36,291.26c.43,5.8.65,9.41-1.62,11.57-1.7,1.6-5.33,2.92-5.29,3h0c2.33.54,17.4,0,23.82.47a140.05,140.05,0,0,0,23.21-1.61c.52-.11-3.35-1.64-3.78-2-3.75-2.92-2.88-8.37-2.69-12a98.12,98.12,0,0,1,1.41-12.07,46,46,0,0,0-5.15.42c-1.15,0-4.31.31-12.69.1l-19.35.07A61.54,61.54,0,0,1,520.36,291.26Z" transform="translate(-432.89 -143.72)"/><path class="cls-9" d="M484.38,238.29c0-6.38,7.45-6,9.41-4.06,1.55,1.5,1.74,4.78,0,7.63a3.5,3.5,0,0,0-4.12.5c-1,1.27-.65,4,1.64,5.28" transform="translate(-432.89 -143.72)"/><path class="cls-9" d="M579.74,230.67h.44v24.92a29.18,29.18,0,0,1-29,29.29H523.21a29.66,29.66,0,0,1-29.54-29.78V230.67h.56a45.31,45.31,0,0,1-1.31-16.15A44.27,44.27,0,0,1,581.27,219,45.3,45.3,0,0,1,579.74,230.67Z" transform="translate(-432.89 -143.72)"/><path class="cls-9" d="M478.66,224.07l20.11,9.35s7.12,10.51,6.29,17.47a20.66,20.66,0,0,1-4.64,11s-9-.32-14.75-6.66-10.21-29.53-10.21-29.53S475.15,222.92,478.66,224.07Z" transform="translate(-432.89 -143.72)"/><path class="cls-9" d="M587.22,237.12c0-6.38-7.45-6-9.41-4.05-1.55,1.5-1.74,4.77,0,7.62a3.52,3.52,0,0,1,4.12.5c1,1.27.65,4-1.63,5.29" transform="translate(-432.89 -143.72)"/><path class="cls-9" d="M595,217.51l-20.11,9.36s-7.12,10.51-6.3,17.47a20.65,20.65,0,0,0,4.65,11s9-.31,14.74-6.65,10.21-29.53,10.21-29.53S598.45,216.37,595,217.51Z" transform="translate(-432.89 -143.72)"/><path class="cls-9" d="M467.49,205.93a29.3,29.3,0,0,0,8.18,11c1.46,1.19,5.93,4.55,14,5.76,11.25,1.69,43,1.26,85.4-2.17a35.27,35.27,0,0,0,8.24-5.47c8.48-7.52,11.41-17.3,12.45-21.79-1.3,1.29-6.56,6.16-14,5.8a17,17,0,0,1-6.69-1.77,26.32,26.32,0,0,0,6.47-14.23,31.34,31.34,0,0,0-.22-7.05,152.37,152.37,0,0,0-3-18.23,44.72,44.72,0,0,1-10.9,13.76,41.46,41.46,0,0,1-10.26,6.35c1.47-2.63,3-6.36,1.86-9.88s-4-4.14-5.14-7.23c-.93-2.46-.8-6.55,4.2-13.58-10.79,5.83-13.87,10.36-14.47,13.58a11.53,11.53,0,0,1-3,6.48,8.45,8.45,0,0,1-3.15,1.88c-.17-2.72-3.2-5.19-5.83-7.95-3.43-3.59-7.39-2.46-11.71-5.41-2.44-1.66-5.44-4.94-7.2-12.11-1.33,2.44-5.38,10.61-3.19,20.34a26.17,26.17,0,0,0,3.19,7.88,29.48,29.48,0,0,1-6.19-1.16,30.65,30.65,0,0,1-5.48-2.26,35.67,35.67,0,0,1-13.16-12.45c-.56,2.08-3,12.08,2.41,21.16,2.68,4.54,6.91,6.1,6.48,7.06-.29.64-2-.2-4.49,0-4.53.36-6.28,3.78-9.51,5.17-2.51,1.09-6.61,1.27-13.48-3.29a30.14,30.14,0,0,0,9.94,12.94c4.62,3.26,9.35,4.23,9.24,6-.06.91-1.39,2.08-7.25,3.18" transform="translate(-432.89 -143.72)"/><path class="cls-17" d="M539.92,246.39l-11.36-4.64L507.13,233c-.42,9.29,5.43,17.49,13.66,19.73A18.85,18.85,0,0,0,539.92,246.39Z" transform="translate(-432.89 -143.72)"/><path class="cls-17" d="M552.34,246.39l8.63-4.64L577.24,233c.32,9.29-4.12,17.49-10.37,19.73C561.7,254.58,556,252.09,552.34,246.39Z" transform="translate(-432.89 -143.72)"/><path class="cls-9" d="M542.12,572.37c3.56,4.22,4.88,15.78,4.92,23.15.06,12.93-1.75,33.52-3.8,65.2C542.58,671,542,682,542,682c-.53,9.3-.92,17-1.17,22,0,0-17.53,25-31.21-1.38,0-3.08.09-8.26,0-14.68-.05-4.47-.21-14-.85-25.94-2.64-49.08-9-77.36-.42-88.78" transform="translate(-432.89 -143.72)"/><path class="cls-9" d="M532.18,612.63c-6.09,4.55-13.28,4.75-20.74-6.88-1.53-2.38-3.52-9.64-4.12-12.62-2.9-14.48-11.13-65.46-7.51-99.75,1.92-18.24-2.77-39.41,20.94-44.11,18.48-3.67,20,27.37,20,27.37s8.71,49.48,3,110C543,594.92,537.91,608.34,532.18,612.63Z" transform="translate(-432.89 -143.72)"/><path class="cls-9" d="M562.58,266.39a4.1,4.1,0,0,0-1.4-4.86,7.66,7.66,0,0,0-6.64-1.21,20.09,20.09,0,0,1-9.1,3,21.57,21.57,0,0,1-13-3,6.67,6.67,0,0,0-4.5,0,3.8,3.8,0,0,0-2.49,4.52c2,6.81,9.76,11.68,18.57,11.78C552.29,276.71,559.84,272.58,562.58,266.39Z" transform="translate(-432.89 -143.72)"/><g class="cls-21"><path class="cls-22" d="M535.81,275c0,3.83,5.3,4.21,9,4.21s8-1.23,8-5.05-4.33-8.81-8-8.81S535.81,271.19,535.81,275Z" transform="translate(-432.89 -143.72)"/><ellipse class="cls-3" cx="111.69" cy="132.57" rx="10.39" ry="0.86"/><line class="cls-23" x1="111.22" y1="126.89" x2="111.69" y2="130.71"/><ellipse class="cls-3" cx="111.26" cy="116.95" rx="11.01" ry="4.1"/><polygon class="cls-3" points="120.86 122.34 122.59 119.26 124.33 116.18 120.86 116.18 117.39 116.18 119.12 119.26 120.86 122.34"/><polygon class="cls-3" points="102.05 122.82 103.79 119.73 105.52 116.65 102.05 116.65 98.58 116.65 100.32 119.73 102.05 122.82"/><polygon class="cls-3" points="106 124.24 107.74 121.16 109.47 118.08 106 118.08 102.53 118.08 104.27 121.16 106 124.24"/><polygon class="cls-3" points="110.23 124.59 111.96 121.51 113.7 118.43 110.23 118.43 106.76 118.43 108.49 121.51 110.23 124.59"/><polygon class="cls-3" points="114.32 124.95 116.05 121.87 117.79 118.79 114.32 118.79 110.85 118.79 112.58 121.87 114.32 124.95"/><polygon class="cls-3" points="117.86 123.88 119.6 120.8 121.33 117.72 117.86 117.72 114.39 117.72 116.13 120.8 117.86 123.88"/><polygon class="cls-3" points="119.13 126.43 117.92 129.69 116.7 132.96 120.14 132.53 123.57 132.1 121.35 129.26 119.13 126.43"/><polygon class="cls-3" points="113.83 127.12 112.45 130.34 111.08 133.55 114.53 133.26 117.98 132.96 115.91 130.04 113.83 127.12"/><polygon class="cls-3" points="109.41 127.03 107.15 129.84 104.89 132.65 108.32 133.12 111.75 133.58 110.58 130.3 109.41 127.03"/><polygon class="cls-3" points="104.36 126.31 102.11 129.13 99.85 131.94 103.28 132.4 106.71 132.87 105.54 129.59 104.36 126.31"/></g><path class="cls-24" d="M562.58,266.39a4.1,4.1,0,0,0-1.4-4.86,7.66,7.66,0,0,0-6.64-1.21,20.09,20.09,0,0,1-9.1,3,21.57,21.57,0,0,1-13-3,6.67,6.67,0,0,0-4.5,0,3.8,3.8,0,0,0-2.49,4.52c2,6.81,9.76,11.68,18.57,11.78C552.29,276.71,559.84,272.58,562.58,266.39Z" transform="translate(-432.89 -143.72)"/><path class="cls-9" d="M541.16,696.62s-10-9-32,3.89l-2.49,51.12,93.54-.18S570,731.67,556,727a44.82,44.82,0,0,1-8.82-4.71c-3.47-2.9-5.08-6-5.34-8.9C541.87,713.38,540.67,707.62,541.16,696.62Z" transform="translate(-432.89 -143.72)"/><path class="cls-9" d="M466.61,394.52a12.31,12.31,0,0,1-5.26-5.17,12.16,12.16,0,0,1-.74-9.31,136.13,136.13,0,0,1,7.34-25.5,133,133,0,0,1,6.57-14.08c11.41-18.78,15-30.34,20.93-29.09,2.47.53,7.38,3.4,8.54,5.5,1.38,6.17.08,9.61-2.53,20-3.26,13-5.92,21.14-7.37,26.81a72.25,72.25,0,0,1-16.64,31.39C476.24,395.49,471.34,397,466.61,394.52Z" transform="translate(-432.89 -143.72)"/><path class="cls-9" d="M444.47,310.84s-25.64,31.67-.63,49.48,18.7,11,18.7,11l22.52-50.07c-3.77,11.79-16.28,18-27,14.36C448.45,332.34,442.35,321.71,444.47,310.84Z" transform="translate(-432.89 -143.72)"/><path class="cls-19" d="M498.6,300.09l-8-4-1-14.27c5.27-3.32,21.15-18.23,26.42-21.55.14.15-3.71,6.45-4.54,9.56-.56,2.1-8,11.27-10.09,11.79l-4,4.86,23.21-7.7a27.23,27.23,0,0,1-8.68,9.79l-6.64,1.83c.76-.26,13.91-3.95,18.35-4.06.16.29-5.71,4.43-7.46,6.49-.67.79-4,1.28-5,1.42l-5,.68S506.88,293.55,498.6,300.09Z" transform="translate(-432.89 -143.72)"/><path class="cls-9" d="M502.48,331.37a117.64,117.64,0,0,1,3.17-13.58,17.31,17.31,0,0,0,2.15-3.37,16.37,16.37,0,0,0,1.07-2.83c1.87-6.87-1.79-11.41-2.58-12.73l-1.17-1a25.91,25.91,0,0,0-2.07-5.3s3.12-6.05,2.16-8.57c0,0,2.31-13.64-.19-12.66L494,293.22l.56,6-2.83-9.1,4.28-9c7.23-7.92,13.3-30.66,11.65-31.24s-16.71,26.78-17.46,28.33q-3.63,6.16-7.28,12.32c1,8.42,2.56,17.07,3.55,25.5-.23.51-2.65,6.51-4.81,11.84" transform="translate(-432.89 -143.72)"/><path class="cls-9" d="M466.61,394.52a12.31,12.31,0,0,1-5.26-5.17,12.16,12.16,0,0,1-.74-9.31,136.13,136.13,0,0,1,7.34-25.5,133,133,0,0,1,6.57-14.08c11.41-18.78,15-30.34,20.93-29.09,2.47.53,7.38,3.4,8.54,5.5,1.38,6.17.08,9.61-2.53,20-3.26,13-5.92,21.14-7.37,26.81a72.25,72.25,0,0,1-16.64,31.39C476.24,395.49,471.34,397,466.61,394.52Z" transform="translate(-432.89 -143.72)"/><path class="cls-9" d="M444.47,310.84s-25.64,31.67-.63,49.48,18.7,11,18.7,11l22.52-50.07c-3.77,11.79-16.28,18-27,14.36C448.45,332.34,442.35,321.71,444.47,310.84Z" transform="translate(-432.89 -143.72)"/><path class="cls-19" d="M498.6,300.09l-8-4-1-14.27c5.27-3.32,21.15-18.23,26.42-21.55.14.15-3.71,6.45-4.54,9.56-.56,2.1-8,11.27-10.09,11.79l-4,4.86,23.21-7.7a27.23,27.23,0,0,1-8.68,9.79l-6.64,1.83c.76-.26,13.91-3.95,18.35-4.06.16.29-5.71,4.43-7.46,6.49-.67.79-4,1.28-5,1.42l-5,.68S506.88,293.55,498.6,300.09Z" transform="translate(-432.89 -143.72)"/><path class="cls-9" d="M502.48,331.37a117.64,117.64,0,0,1,3.17-13.58,17.31,17.31,0,0,0,2.15-3.37,16.37,16.37,0,0,0,1.07-2.83c1.87-6.87-1.79-11.41-2.58-12.73l-1.17-1a25.91,25.91,0,0,0-2.07-5.3s3.12-6.05,2.16-8.57c0,0,2.31-13.64-.19-12.66L494,293.22l.56,6-2.83-9.1,4.28-9c7.23-7.92,13.3-30.66,11.65-31.24s-16.71,26.78-17.46,28.33q-3.63,6.16-7.28,12.32c1,8.42,2.56,17.07,3.55,25.5-.23.51-2.65,6.51-4.81,11.84" transform="translate(-432.89 -143.72)"/><path class="cls-25" d="M627.93,749.88c0,8,6,53.26,6,53.26s8.51,14,18.47,0l2.18-56.52Z" transform="translate(-432.89 -143.72)"/><g class="cls-26"><rect class="cls-27" x="171.04" y="575.92" width="80.94" height="70.07"/></g><path class="cls-28" d="M627.93,749.88c0,8,6,53.26,6,53.26s8.51,14,18.47,0l2.18-56.52Z" transform="translate(-432.89 -143.72)"/><path class="cls-25" d="M808,739.38l16.28,46.68a12.16,12.16,0,0,0,6.35,7.1c3.07,1.39,7,1.91,9.94-1.88a10.85,10.85,0,0,0,2.08-8.36l-7.48-48.8Z" transform="translate(-432.89 -143.72)"/><g class="cls-29"><rect class="cls-27" x="348.62" y="551.76" width="82.75" height="89.39"/></g><path class="cls-28" d="M808,739.38l16.28,46.68a12.16,12.16,0,0,0,6.35,7.1c3.07,1.39,7,1.91,9.94-1.88a10.85,10.85,0,0,0,2.08-8.36l-7.48-48.8Z" transform="translate(-432.89 -143.72)"/><polygon class="cls-25" points="113.21 548.29 112.94 590.41 130.19 587.6 139.31 548.29 113.21 548.29"/><g class="cls-30"><rect class="cls-27" x="99.76" y="525.18" width="48.93" height="74.29"/></g><polygon class="cls-28" points="113.21 548.29 112.94 590.41 130.19 587.6 139.31 548.29 113.21 548.29"/><polygon class="cls-31" points="182.98 601.82 113.21 550.1 113.21 506.67 184.17 549.03 182.98 601.82"/><polygon class="cls-32" points="182.98 601.82 113.21 550.1 113.21 506.67 184.17 549.03 182.98 601.82"/><path class="cls-33" d="M896.6,482.58s.15-28.46-52.39-28.21L742.77,444.12l-54.7,49.63H552.94s-7.52-2.17-6.84,10.87V650.39l102.48,60,172.09-80.79L879,534.33Z" transform="translate(-432.89 -143.72)"/><path class="cls-31" d="M830.45,517.3s13-35.14-57.24-37.68c0,0-30.07-2.54-69.92,20.65l-147.64-1.85,3.45,98.94L650,579.25l170.64-33.69Z" transform="translate(-432.89 -143.72)"/><ellipse class="cls-34" cx="247.53" cy="196.22" rx="55.88" ry="54.09"/><polyline class="cls-35" points="303.21 198.25 297.38 264.12 288.72 264.39 286.76 252.95 283.75 265.68 272.02 265.68 269.23 257.06 267.24 265.68 252.03 265.68 249.86 258.99 245.56 267.73 230.35 265.96 228.03 252.95 223.91 265.96 205.4 265.18 205.54 249.21 200.16 264.78 191.71 261.24 193.85 192.19"/><path class="cls-1" d="M709.78,378.64A22.63,22.63,0,0,1,711.54,364a20.65,20.65,0,0,1,7.94-8.53,12.11,12.11,0,0,1,8.06,3.27,9.34,9.34,0,0,1,2.31,3.22c2.24,5.38-2,11.45-2.4,12a14.59,14.59,0,0,1-17.67,4.74Z" transform="translate(-432.89 -143.72)"/><path class="cls-36" d="M719.78,373.47a.43.43,0,0,1-.2-.77,3.14,3.14,0,0,0,1.3-3.27,3,3,0,0,0-3.17-1.73c-.55-2.95.57-5.66,2.27-6.44,2.15-1,8.29,1,6.39,6.42,0,0-1.21,5-5.78,5.83Z" transform="translate(-432.89 -143.72)"/><path class="cls-37" d="M681.24,400.05c-.27,2-2.62,21,7.52,24.37a.15.15,0,0,1,0,.28c-2.34.56-12.15,2.88-18.6,3.34-4.87.34-14.88-1.66-19.4-2.64a.6.6,0,0,1-.09-1.12c3.46-1.47,9.35-6.58,5.8-24.21a.15.15,0,0,1,.13-.18h24.51A.13.13,0,0,1,681.24,400.05Z" transform="translate(-432.89 -143.72)"/><path class="cls-38" d="M630.14,362.87c-.08-.12-6.28-14.31-6.28-22.22,0-25.16,22.11-45.55,49.38-45.55s49.4,20.39,49.4,45.55a42.62,42.62,0,0,1-5.7,21.23c.16,2.48.26,14.07-12.39,26.66s-28.13,16.38-30.7,16.3c-3.58.08-16.74,0-28.39-9.38C630.27,383.25,630.12,365.35,630.14,362.87Z" transform="translate(-432.89 -143.72)"/><g class="cls-39"><path class="cls-40" d="M732.63,291.66H605.69l.51,62.11s42.84-3.66,50-30.91c5.89.41,49.79,42.86,72.36,54.09Z" transform="translate(-432.89 -143.72)"/><path class="cls-40" d="M692.79,407.05,730,409.69V343.4H699.94a186.88,186.88,0,0,1,2.95,36C702.71,390.82,694.35,398.38,692.79,407.05Z" transform="translate(-432.89 -143.72)"/><ellipse class="cls-41" cx="235.38" cy="182.3" rx="70.76" ry="43.42"/></g><path class="cls-42" d="M630.14,362.87c-.08-.12-6.28-14.31-6.28-22.22,0-25.16,22.11-45.55,49.38-45.55s49.4,20.39,49.4,45.55a42.62,42.62,0,0,1-5.7,21.23c.16,2.48.26,14.07-12.39,26.66s-28.13,16.38-30.7,16.3c-3.58.08-16.74,0-28.39-9.38C630.27,383.25,630.12,365.35,630.14,362.87Z" transform="translate(-432.89 -143.72)"/><path class="cls-43" d="M669.6,378.94a5.29,5.29,0,0,0-3.92-2,5.13,5.13,0,0,0-3.63,1.5" transform="translate(-432.89 -143.72)"/><polygon class="cls-44" points="243.63 202.86 244.72 198.62 267.67 204.53 258.66 206.73 243.63 202.86"/><polygon class="cls-44" points="222.09 203.5 221.28 199.19 197.99 203.56 206.83 206.36 222.09 203.5"/><path class="cls-43" d="M672.62,388.62a13.37,13.37,0,0,0-13.75,0" transform="translate(-432.89 -143.72)"/><path class="cls-45" d="M649.87,323.41c5.68,5.55,12.75,8.44,20.73,14.09a155.86,155.86,0,0,0,34,18.3c8.38-14.89,9.08-33.78,1.73-48.39-8.86-17.62-28-26.07-45.92-19.53-13.77-3.76-28,1.93-36.39,14.49-9.67,14.58-9.64,35.87.49,51.4,3.17-3.41,6.42-7.13,9.7-11.15C640.38,335,645.38,330.49,649.87,323.41Z" transform="translate(-432.89 -143.72)"/><g class="cls-46"><path class="cls-47" d="M720.52,324.48l-3.75-20.14a311.86,311.86,0,0,1-50.11,5.71,313.25,313.25,0,0,1-65.84-4.81l-1.07,24.35a165.41,165.41,0,0,1,120.77-5.11Z" transform="translate(-432.89 -143.72)"/></g><path class="cls-48" d="M649.87,323.41c5.68,5.55,12.75,8.44,20.73,14.09a155.86,155.86,0,0,0,34,18.3c8.38-14.89,9.08-33.78,1.73-48.39-8.86-17.62-28-26.07-45.92-19.53-13.77-3.76-28,1.93-36.39,14.49-9.67,14.58-9.64,35.87.49,51.4,3.17-3.41,6.42-7.13,9.7-11.15C640.38,335,645.38,330.49,649.87,323.41Z" transform="translate(-432.89 -143.72)"/><path class="cls-49" d="M636.81,372c0,2.94,3.48,6.11,9.57,6.11s11.24-6.53,11.24-9.47-3.69-2-9.78-2S636.81,369.09,636.81,372Z" transform="translate(-432.89 -143.72)"/><path class="cls-3" d="M658.89,363.19c0,5-5,10.06-12.16,10.06s-10.87-2.4-10.87-7.38,5.63-13.1,12.76-13.1S658.89,358.21,658.89,363.19Z" transform="translate(-432.89 -143.72)"/><g class="cls-50"><ellipse class="cls-9" cx="215.81" cy="216.38" rx="7.1" ry="7.95"/><g class="cls-51"><ellipse class="cls-52" cx="215.86" cy="224.43" rx="9.66" ry="8.1"/></g><ellipse class="cls-53" cx="215.81" cy="216.38" rx="7.1" ry="7.95"/></g><path class="cls-9" d="M657.94,356.83s-15.26-11.84-23.5,10.64l-3.41,1c3.91-11.16,12.27-17.56,19.32-16.38C651.71,352.32,654.77,353.13,657.94,356.83Z" transform="translate(-432.89 -143.72)"/><path class="cls-49" d="M697.21,372.06c0,3-3.56,6.26-9.8,6.26s-11.5-6.68-11.5-9.69,3.77-2,10-2S697.21,369.05,697.21,372.06Z" transform="translate(-432.89 -143.72)"/><path class="cls-3" d="M674.88,363.38c0,5.09,5.16,10.3,12.46,10.3s11.12-2.46,11.12-7.55-5.77-13.42-13.07-13.42S674.88,358.28,674.88,363.38Z" transform="translate(-432.89 -143.72)"/><g class="cls-54"><ellipse class="cls-9" cx="252.43" cy="216.5" rx="7.27" ry="8.14"/><g class="cls-55"><ellipse class="cls-56" cx="252.37" cy="224.74" rx="9.89" ry="8.29"/></g><ellipse class="cls-57" cx="252.43" cy="216.5" rx="7.27" ry="8.14"/></g><path class="cls-9" d="M675.76,356.9s15.48-12,23.84,10.79l3.46,1c-4-11.32-12.45-17.81-19.6-16.61C682.07,352.33,679,353.14,675.76,356.9Z" transform="translate(-432.89 -143.72)"/><path class="cls-38" d="M633.79,423.91c-5.15-.09-11.26,1.61-14.47,9.65-1,4.74-1.63,9.59-2.55,14.58q-1.23,6.8-2.35,13.9c-1.53,9.8-4.21,27-5.17,36.08.24,1,1,3.22,4.66,5.71,2.74,1.84,6.31,1.57,7.31,1.58a13,13,0,0,0,11.24-5.7c2.89-11,7-26.12,10.55-39.48,1.44-5.39,2.81-10.5,4-15" transform="translate(-432.89 -143.72)"/><g class="cls-58"><path class="cls-40" d="M654.3,448.3l-1.36-.72c-8-4.25-17.72,1.21-18,10.08L633,515.08l21.31-6.86Z" transform="translate(-432.89 -143.72)"/></g><path class="cls-59" d="M633.79,423.91c-5.15-.09-11.26,1.61-14.47,9.65-1,4.74-1.63,9.59-2.55,14.58q-1.23,6.8-2.35,13.9c-1.53,9.8-4.21,27-5.17,36.08.24,1,1,3.22,4.66,5.71,2.74,1.84,6.31,1.57,7.31,1.58a13,13,0,0,0,11.24-5.7c2.89-11,7-26.12,10.55-39.48,1.44-5.39,2.81-10.5,4-15" transform="translate(-432.89 -143.72)"/><path class="cls-6" d="M615.5,484.08a12,12,0,0,0-5.91,7.41,126,126,0,0,0-7.65,25.1A122.72,122.72,0,0,0,600,531.74c-.17,21.56-.92,26,5.19,28,2.54.83,5.82.07,8-1.09,5.43-2.83,5.38-9.26,7.58-14.13,5.51-12.19,8.18-16.69,10-22.18a66.35,66.35,0,0,0,3.59-16.9,64.85,64.85,0,0,0-1.1-17.89" transform="translate(-432.89 -143.72)"/><path class="cls-40" d="M605.44,577.84l-8.61-1.07L588.55,588l7.59,16.84a5.95,5.95,0,0,0,2.76-9.75l-1.61-6.68,9.86,12.51s5.72-.16,3-6.31l-4.42-5.12c.48.62,5.14,6.57,7.14,5.51.33-.18,1.19-.87.83-4.42l-4.88-4.35S608.71,587.75,605.44,577.84Z" transform="translate(-432.89 -143.72)"/><path class="cls-38" d="M618.22,552a132.39,132.39,0,0,1-1.82,14.42,17.38,17.38,0,0,1,.42,3.92,15.81,15.81,0,0,1-.28,3,14.31,14.31,0,0,1-7.67,10.08l-1.45.37a25.92,25.92,0,0,1-4.06,3.75s.11,6.72-1.8,8.51c0,0-3.18,1.94-4.92,0l-.87-13.12,3-5-6.34,6.77-.13,9.82c2.87,10.19-1.84,10.37-3.51,10.16s-2.78-8.48-2.77-10.18c-.34-4.71-.68-9.4-1-14.1,4.45-7,9.52-13.91,14-20.89,0-.55.5-7.31.72-13" transform="translate(-432.89 -143.72)"/><g class="cls-60"><path class="cls-38" d="M619.14,550.49,618.67,561" transform="translate(-432.89 -143.72)"/><path class="cls-40" d="M617.51,550.49,617,561a1.64,1.64,0,1,0,3.27,0l.48-10.52a1.65,1.65,0,0,0-1.64-1.64,1.67,1.67,0,0,0-1.63,1.64Z" transform="translate(-432.89 -143.72)"/><path class="cls-38" d="M618.93,549.22a72.55,72.55,0,0,1,.42,16.53" transform="translate(-432.89 -143.72)"/><path class="cls-40" d="M617.35,549.66a72.17,72.17,0,0,1,.36,16.09,1.65,1.65,0,0,0,1.64,1.64,1.67,1.67,0,0,0,1.64-1.64,75.77,75.77,0,0,0-.48-17,1.65,1.65,0,0,0-2-1.15,1.69,1.69,0,0,0-1.15,2Z" transform="translate(-432.89 -143.72)"/></g><path class="cls-59" d="M618.22,552a132.39,132.39,0,0,1-1.82,14.42,17.38,17.38,0,0,1,.42,3.92,15.81,15.81,0,0,1-.28,3,14.31,14.31,0,0,1-7.67,10.08l-1.45.37a25.92,25.92,0,0,1-4.06,3.75s.11,6.72-1.8,8.51c0,0-3.18,1.94-4.92,0l-.87-13.12,3-5-6.34,6.77-.13,9.82c2.87,10.19-1.84,10.37-3.51,10.16s-2.78-8.48-2.77-10.18c-.34-4.71-.68-9.4-1-14.1,4.45-7,9.52-13.91,14-20.89,0-.55.5-7.31.72-13" transform="translate(-432.89 -143.72)"/><path class="cls-38" d="M559.09,719.43s22.11,21.26,29.49-7.64c-.7-3-1.86-8.17-3.17-14.55-.92-4.44-2.83-14-4.77-25.87-8-49.17-7.45-75.37-18.13-85-9-8.11-24.39-7.87-30.2,3.6-2.48,4.9-1.83,14.43-.28,21.74,2.72,12.83,6.66,34.25,15.41,65.24,2.84,10,5.81,20.84,5.81,20.84C555.75,707,557.76,714.44,559.09,719.43Z" transform="translate(-432.89 -143.72)"/><g class="cls-61"><path class="cls-40" d="M535.27,686.87a153.62,153.62,0,0,0,72.27-17.66l-24-98.23-72.26,17.66Z" transform="translate(-432.89 -143.72)"/></g><path class="cls-62" d="M559.09,719.43s22.11,21.26,29.49-7.64c-.7-3-1.86-8.17-3.17-14.55-.92-4.44-2.83-14-4.77-25.87-8-49.17-7.45-75.37-18.13-85-9-8.11-24.39-7.87-30.2,3.6-2.48,4.9-1.83,14.43-.28,21.74,2.72,12.83,6.66,34.25,15.41,65.24,2.84,10,5.81,20.84,5.81,20.84C555.75,707,557.76,714.44,559.09,719.43Z" transform="translate(-432.89 -143.72)"/><path class="cls-38" d="M531.68,587.39c-2.64,6.89-.81,13.33,12.46,16.14,2.71.57,10.24,0,13.26-.48,14.71-2.17,66-11.56,97.82-26,16.95-7.67,19.49-21.23,17.17-29.11-2.81-9.51-12.68-12.7-12.68-12.7s-49.93,8.48-106.42,33.36C545.61,572,534.17,580.91,531.68,587.39Z" transform="translate(-432.89 -143.72)"/><path class="cls-63" d="M531.68,587.39c-2.64,6.89-.81,13.33,12.46,16.14,2.71.57,10.24,0,13.26-.48,14.71-2.17,66-11.56,97.82-26,16.95-7.67,19.49-21.23,17.17-29.11-2.81-9.51-12.68-12.7-12.68-12.7s-49.93,8.48-106.42,33.36C545.61,572,534.17,580.91,531.68,587.39Z" transform="translate(-432.89 -143.72)"/><path class="cls-38" d="M637.22,511.51" transform="translate(-432.89 -143.72)"/><path class="cls-38" d="M633.29,438.18l2.34,9.5a1.48,1.48,0,0,1,0,1.15c-1,4-.14,6.63-1,9.66,0,0,0,2.42,0,2.41l69.15-1.61,15.58-32.37-32-5.65-.18,0h-26L643.62,423h0l-13,.94" transform="translate(-432.89 -143.72)"/><path class="cls-64" d="M637.22,511.51" transform="translate(-432.89 -143.72)"/><path class="cls-64" d="M633.29,438.18l2.34,9.5a1.48,1.48,0,0,1,0,1.15c-1,4-.14,6.63-1,9.66,0,0,0,2.42,0,2.41l69.15-1.61,15.58-32.37-32-5.65-.18,0h-26L643.62,423h0l-13,.94" transform="translate(-432.89 -143.72)"/><path class="cls-65" d="M587.65,708,601,760l-55.28,13.08s-9.76-19.63,2.59-27.18a15.44,15.44,0,0,0,4.29-4c2.69-3.6,5.73-9.55,6.31-12.42,0,0,1.31-8.89-1.18-15.82" transform="translate(-432.89 -143.72)"/><path class="cls-8" d="M558.38,727.78c4.54-.37,9.44-1,14.62-1.9a156.23,156.23,0,0,0,18.72-4.57l1.35,5.53A155.27,155.27,0,0,1,557,733.56Z" transform="translate(-432.89 -143.72)"/><path class="cls-66" d="M593,726.44,601.18,760,545.3,773.27s-10.89-21.5,2.8-28.55a5.83,5.83,0,0,0,1.58-1.18l4.84-5.6,20.6-1.82a14,14,0,0,0,6.42-2.22Z" transform="translate(-432.89 -143.72)"/><g class="cls-67"><rect class="cls-68" x="526.11" y="756.51" width="78.91" height="17.18" transform="translate(863.76 1230.29) rotate(166.26)"/></g><path class="cls-69" d="M593,726.44,601.18,760,545.3,773.27s-10.89-21.5,2.8-28.55a5.83,5.83,0,0,0,1.58-1.18l4.84-5.6,20.6-1.82a14,14,0,0,0,6.42-2.22Z" transform="translate(-432.89 -143.72)"/><path class="cls-38" d="M579.76,730.76s17,25.5,30.43-1.15c0-3.12-.06-8.38,0-14.89.06-4.54.23-14.24.88-26.3,2.68-49.75,8.86-75.22.48-86.86-7.09-9.86-22.14-12.91-30.27-3-3.47,4.26-4.88,13.7-4.93,21.18-.09,13.11-.83,34.89,1.09,67,.62,10.4,1.21,21.6,1.21,21.6C579.17,717.85,579.53,725.6,579.76,730.76Z" transform="translate(-432.89 -143.72)"/><g class="cls-70"><path class="cls-40" d="M563.26,685.54a166.72,166.72,0,0,0,74.37-1.79L635.4,591,561,592.76Z" transform="translate(-432.89 -143.72)"/></g><path class="cls-62" d="M579.76,730.76s17,25.5,30.43-1.15c0-3.12-.06-8.38,0-14.89.06-4.54.23-14.24.88-26.3,2.68-49.75,8.86-75.22.48-86.86-7.09-9.86-22.14-12.91-30.27-3-3.47,4.26-4.88,13.7-4.93,21.18-.09,13.11-.83,34.89,1.09,67,.62,10.4,1.21,21.6,1.21,21.6C579.17,717.85,579.53,725.6,579.76,730.76Z" transform="translate(-432.89 -143.72)"/><path class="cls-38" d="M573.51,600.11c-3,6.94-1.33,13.43,12.42,16.24,2.81.57,10.7-.05,13.87-.5,15.44-2.21,69.27-11.73,103.06-26.3,18-7.76,21.11-21.41,19-29.35-2.59-9.58-12.78-12.78-12.78-12.78S691,531.6,596.74,581.15C588.92,585.26,576.34,593.57,573.51,600.11Z" transform="translate(-432.89 -143.72)"/><path class="cls-71" d="M573.51,600.11c-3,6.94-1.33,13.43,12.42,16.24,2.81.57,10.7-.05,13.87-.5,15.44-2.21,69.27-11.73,103.06-26.3,18-7.76,21.11-21.41,19-29.35-2.59-9.58-12.78-12.78-12.78-12.78S691,531.6,596.74,581.15C588.92,585.26,576.34,593.57,573.51,600.11Z" transform="translate(-432.89 -143.72)"/><path class="cls-65" d="M610.1,725.66,612,779.32l-56.8.94s-5.34-21.26,8.35-26a15.44,15.44,0,0,0,5.05-3c3.4-3,7.64-8.1,8.82-10.79,0,0,3.18-8.4,2.23-15.7" transform="translate(-432.89 -143.72)"/><path class="cls-8" d="M577.28,738.76c4.51.61,9.42,1.07,14.68,1.28a152.55,152.55,0,0,0,19.26-.47l.14,5.7a153.9,153.9,0,0,1-36.66-1.16Z" transform="translate(-432.89 -143.72)"/><path class="cls-66" d="M611.35,744.86l.83,34.56-57.42,1s-6-23.33,8.84-27.28a6,6,0,0,0,1.8-.81l5.92-4.45,20.52,2.64a14,14,0,0,0,6.74-.79Z" transform="translate(-432.89 -143.72)"/><g class="cls-72"><rect class="cls-68" x="536.85" y="768.16" width="78.91" height="17.18" transform="translate(738.22 1395.72) rotate(178.62)"/></g><path class="cls-69" d="M611.35,744.86l.83,34.56-57.42,1s-6-23.33,8.84-27.28a6,6,0,0,0,1.8-.81l5.92-4.45,20.52,2.64a14,14,0,0,0,6.74-.79Z" transform="translate(-432.89 -143.72)"/><path class="cls-73" d="M634.16,524c-1.91,1.25-5.71,16.24-8.75,24.59-.1.28-1.15,4.59-1.2,4.88-1.19,6.91-1.14,10.88,0,11.39,10.38,4.61,11.19,4.61,20.84,13.45,2.12,2,10.8,10.54,13.67,10.45l16.88.81c.48,0,6-4.51,6.43-4.83,3.59-3,27.19-18,41.36-20.7,2-4.88.19-12-2.3-17.6-2.72-6.14-6.11-13.62-8.64-18.79a2.21,2.21,0,0,0-2.19-1.26c-6.32.55-18.51,5.23-35.34,5.74-19.31.58-40.76-8.13-40.76-8.13" transform="translate(-432.89 -143.72)"/><path class="cls-66" d="M710.09,449.64s-3.09,8-6.13,34l.86,22.3,9.78,24c-4.37,3.72-21.36,17.3-45.63,15.72-19.5-1.27-32.84-11.62-37.72-15.83L641,504.72l1.1-23.25s-16.54-14.65-3-40.26l67.89,2Z" transform="translate(-432.89 -143.72)"/><g class="cls-74"><path class="cls-75" d="M670,482.48s-15.41-26.41-39.77-18.61l9.19,18.27Z" transform="translate(-432.89 -143.72)"/><path class="cls-75" d="M703.41,483l-31.23.34s15.73-26.41,40.61-18.61" transform="translate(-432.89 -143.72)"/></g><path class="cls-69" d="M710.09,449.64s-3.09,8-6.13,34l.86,22.3,9.78,24c-4.37,3.72-21.36,17.3-45.63,15.72-19.5-1.27-32.84-11.62-37.72-15.83L641,504.72l1.1-23.25s-16.54-14.65-3-40.26l67.89,2Z" transform="translate(-432.89 -143.72)"/><path class="cls-76" d="M709.37,452.06c-1-1-.28-5-6-5.35a16,16,0,0,0-11.94,4.86,13.42,13.42,0,0,0-9.83-4.86,13,13,0,0,0-8.64,3.4,13.8,13.8,0,0,0-9.83-4.23,13.63,13.63,0,0,0-8.93,3.72,14.87,14.87,0,0,0-8.26-2.89c-5.34-.16-9.61,3.11-10.69,4l.38-7.43c.06-.12.15-.3.27-.51,2.42-4.25,7.75-4.82,8.26-4.87,5.33-.48,9,3.44,9.62,4.07a12.2,12.2,0,0,1,19.18.54c.3-.38,4.59-5.56,10.9-4.5a12.36,12.36,0,0,1,8.07,5.69c.28-.41,4.17-5.93,9.95-5.39.28,0,6.2-.15,8.25,4.07.19.39.73,2.17.81,2.41Z" transform="translate(-432.89 -143.72)"/><path class="cls-11" d="M663.52,434a24.49,24.49,0,0,0-18.5-5.69" transform="translate(-432.89 -143.72)"/><path class="cls-11" d="M670.63,434a31.5,31.5,0,0,1,19.49-6.51" transform="translate(-432.89 -143.72)"/><path class="cls-66" d="M709.27,516.89a80.71,80.71,0,0,1,14.07,35.46c.84,6.19,1.69,12.47,0,20.1-3.8,17.21-15.57,19-30.55,41.81a161.22,161.22,0,0,0-14.47,29c-6.45,16.8-5.66,22.62-12.06,36.18a107.24,107.24,0,0,1-13.67,21.71c-11.06-.26-18.09-3.48-22.51-6.43-6.9-4.62-6.89-8.25-13.67-11.26-8.28-3.68-11.33.38-20.91-3.22-7.92-3-6.48-6-14.47-8.84-9.55-3.41-13.17.34-20.1-4-4.91-3.09-4.33-5.76-9.65-8-4-1.74-6.19-1-12.06-2.41a45,45,0,0,1-10.45-4c-5.91-14.14-15.66-44-2.41-70,7.84-15.41,22.79-24.36,52.26-41.81a489.67,489.67,0,0,1,58.6-29.58Z" transform="translate(-432.89 -143.72)"/><g class="cls-77"><path class="cls-75" d="M542,673.73c-1.81-7.35-12.51-53.93,16.87-94.14,15.54-21.25,35.4-31.32,45.87-35.68-6.31,3.32-40.37,22-52.26,63.52-9.15,31.88.17,58.5,3.61,67.13Z" transform="translate(-432.89 -143.72)"/><path class="cls-75" d="M562.94,673.36a132.8,132.8,0,0,1,5.63-65.93c16.1-45.38,52.44-67,62.68-72.67-12.16,8.74-46.83,36.11-59.47,84.73a145.84,145.84,0,0,0-3.21,56.28Z" transform="translate(-432.89 -143.72)"/><path class="cls-75" d="M583.11,681.64c5.1-13.33,10.86-27.19,17.4-41.45a695.14,695.14,0,0,1,36.4-68.94Q622.83,605.56,608,640.39q-9.66,22.65-19.39,44.9Z" transform="translate(-432.89 -143.72)"/><path class="cls-75" d="M613.8,695s11.94-81.42,59.34-125.51a274.7,274.7,0,0,0-49.8,127.33Z" transform="translate(-432.89 -143.72)"/></g><path class="cls-69" d="M709.27,516.89a80.71,80.71,0,0,1,14.07,35.46c.84,6.19,1.69,12.47,0,20.1-3.8,17.21-15.57,19-30.55,41.81a161.22,161.22,0,0,0-14.47,29c-6.45,16.8-5.66,22.62-12.06,36.18a107.24,107.24,0,0,1-13.67,21.71c-11.06-.26-18.09-3.48-22.51-6.43-6.9-4.62-6.89-8.25-13.67-11.26-8.28-3.68-11.33.38-20.91-3.22-7.92-3-6.48-6-14.47-8.84-9.55-3.41-13.17.34-20.1-4-4.91-3.09-4.33-5.76-9.65-8-4-1.74-6.19-1-12.06-2.41a45,45,0,0,1-10.45-4c-5.91-14.14-15.66-44-2.41-70,7.84-15.41,22.79-24.36,52.26-41.81a489.67,489.67,0,0,1,58.6-29.58Z" transform="translate(-432.89 -143.72)"/><path class="cls-76" d="M705.48,504.79c-7,3.1-20.22,4.73-34,5.22-19.21.68-23.33-1-31-4.81l-4.21,10.57c6.4,3.89,15.28,8.11,36,7.25,16.72-.69,31.13-3.89,37.47-7.66Z" transform="translate(-432.89 -143.72)"/><path class="cls-38" d="M696.88,442.2c-.5,4.67-.74,6.95-1.31,12.62-1.41,14.05-3.27,33-4.49,44.62a12.89,12.89,0,0,0,8.5,9.38c.93.33,4.19,1.84,7.41,1,4.35-1.1,5.81-2.94,6.4-3.84,2.34-9,6-26.46,8-36.39q1.5-7.2,2.75-14.15,1.38-7.65,2.53-15c-.62-6.6-4-12.28-8.85-14C710.66,424,699.9,430,696.88,442.2Z" transform="translate(-432.89 -143.72)"/><path class="cls-43" d="M696.88,442.2c-.5,4.67-.74,6.95-1.31,12.62-1.41,14.05-3.27,33-4.49,44.62a12.89,12.89,0,0,0,8.5,9.38c.93.33,4.19,1.84,7.41,1,4.35-1.1,5.81-2.94,6.4-3.84,2.34-9,6-26.46,8-36.39q1.5-7.2,2.75-14.15,1.38-7.65,2.53-15c-.62-6.6-4-12.28-8.85-14C710.66,424,699.9,430,696.88,442.2Z" transform="translate(-432.89 -143.72)"/><path class="cls-78" d="M654,462.18a54.91,54.91,0,0,0,1.52,16.47c3.6,14.21,15.13,19.65,19.82,23.48C670,506.24,660,514,651.22,518.3a122.92,122.92,0,0,1-20.64,8c-30.07.79-50.83-12.06-52.12-28.52-.26-3.34.06-9.48,5.21-18A45.54,45.54,0,0,1,604.37,464a36.57,36.57,0,0,1,27.49.54,27,27,0,0,1,10.07-3.76A22.38,22.38,0,0,1,654,462.18Z" transform="translate(-432.89 -143.72)"/><g class="cls-79"><path class="cls-80" d="M657,454.37S632,489.3,668.52,512.61,657,454.37,657,454.37Z" transform="translate(-432.89 -143.72)"/><path class="cls-80" d="M597.87,509.86s12.35,10.49,21.87,4.34h0s23.64,1.89,33.55-8.68h0s19.23,6.54,26.59-11-1.73,34.63-1.73,34.63l-59.76,22.25L569.17,513.2,575.05,497l2.84,3.68,20,9.22" transform="translate(-432.89 -143.72)"/></g><path class="cls-81" d="M654,462.18a54.91,54.91,0,0,0,1.52,16.47c3.6,14.21,15.13,19.65,19.82,23.48C670,506.24,660,514,651.22,518.3a122.92,122.92,0,0,1-20.64,8c-30.07.79-50.83-12.06-52.12-28.52-.26-3.34.06-9.48,5.21-18A45.54,45.54,0,0,1,604.37,464a36.57,36.57,0,0,1,27.49.54,27,27,0,0,1,10.07-3.76A22.38,22.38,0,0,1,654,462.18Z" transform="translate(-432.89 -143.72)"/><path class="cls-82" d="M631.83,473s8,25.88,26.2,38C658,511,634.46,481.42,631.83,473Z" transform="translate(-432.89 -143.72)"/><path class="cls-82" d="M622.54,468.16s2.58,34.36,11.93,47.57C634.47,515.73,620.77,503.72,622.54,468.16Z" transform="translate(-432.89 -143.72)"/><path class="cls-82" d="M592.76,476.92s9.64,25.36,32,43C624.78,519.91,599.66,492.37,592.76,476.92Z" transform="translate(-432.89 -143.72)"/><path class="cls-82" d="M586.15,479.4s-.53,16.46,21.87,41.44C608,520.84,582.82,498.3,586.15,479.4Z" transform="translate(-432.89 -143.72)"/><path class="cls-83" d="M690.11,507.28c-4,1.7-9.3-.26-11.83-5.06a27,27,0,0,1-7.95.76c-10.8-.59-20.1-7.84-24.89-16.21-5.71-10-6.73-24.56-1.38-27.58,2-1.11,4.58-.57,7.21.63l6.94-6.33c.08.1,1.24-1.18,1.32-1.08-.79.72.66-.73,1.69-1.67,9.67-8.82,25.38-7.34,35.1,3.3s8.5,28.64.08,35.25a14.74,14.74,0,0,1-7.11,2.88,8,8,0,0,1,.82,15.11Z" transform="translate(-432.89 -143.72)"/><path class="cls-84" d="M656.15,481.32c1.63-.12,2.2-1.9,1.51-3.66-.77-2-3-3.69-4.7-3.21" transform="translate(-432.89 -143.72)"/><path class="cls-85" d="M681.75,474.76A4.73,4.73,0,0,1,685,479.5a4.66,4.66,0,0,1-2.85,3.85" transform="translate(-432.89 -143.72)"/><path class="cls-85" d="M662.38,453.53a6.47,6.47,0,0,1,4.42.31,6.79,6.79,0,0,1,3.57,4.75" transform="translate(-432.89 -143.72)"/><ellipse class="cls-86" cx="665.47" cy="488.94" rx="2.93" ry="6.22" transform="translate(-588.56 432.58) rotate(-42.38)"/><ellipse class="cls-86" cx="649.27" cy="464.89" rx="2.13" ry="4.53" transform="translate(-576.59 415.37) rotate(-42.38)"/><path class="cls-86" d="M686.05,495.92a4.82,4.82,0,0,1-3.3,6.24,3.55,3.55,0,1,0,3.3-6.24Z" transform="translate(-432.89 -143.72)"/><path class="cls-87" d="M691.29,456.85c4.34-.69,7-4.53,6.36-7.85-.68-3.52-5-5.9-7.83-5-1.66.55-3.33,2.37-2.91,3.77s2.58,2,4.16,1.63c3.08-.77,5.22-6.08,3.3-9.19a5.57,5.57,0,0,0-2.87-2.16" transform="translate(-432.89 -143.72)"/><path class="cls-11" d="M712.69,507a11.83,11.83,0,0,1-6.82,6.22,128.9,128.9,0,0,1-24.2,9.44,125.71,125.71,0,0,1-14.83,3.17c-21.35,2.07-25.67,3.17-28.18-2.41-1-2.32-.58-5.48.38-7.68,2.33-5.37,8.66-7.16,13.29-9.66a196,196,0,0,1,21.13-10.18A68.66,68.66,0,0,1,689.89,491a67.76,67.76,0,0,1,17.82-.56" transform="translate(-432.89 -143.72)"/><line class="cls-88" x1="193.75" y1="386.21" x2="182.19" y2="388.62"/><line class="cls-88" x1="194.44" y1="389.62" x2="191.2" y2="390.98"/><path class="cls-38" d="M649.05,509.62l-5.3-1.67a28.15,28.15,0,0,0-13.24-1.81c-.51-.21-3.42-1.22-5.17-1.95a18.44,18.44,0,0,0-4.34-1.51c-1.11-.2-2,.28-4.52.49-1.33.11-1.6.07-4,.22-.29.58-.91,3.24-.3,4a7,7,0,0,0,3.57,2.56,12.14,12.14,0,0,0,4.59.45,7.37,7.37,0,0,1,4.18,2.65,6.13,6.13,0,0,1-2.56,9.9l-8.39,2.45-6.23-1.91a5,5,0,0,0-1.86-2.76,4.25,4.25,0,0,0-5.12.4l3,6.6,7.33,3.89,5.53.75,5.88,2.81,1.9-.49,3.45,2,2.33-.6.14,0,3.47,1.29,6-3.42.56-.33,1-.66.67-.44,9.52-5.26,8-.84" transform="translate(-432.89 -143.72)"/><g class="cls-89"><path class="cls-38" d="M654.72,504.64a31.54,31.54,0,0,1-8.77,2.14" transform="translate(-432.89 -143.72)"/><path class="cls-40" d="M654.28,503a33.11,33.11,0,0,1-4.23,1.37c-.69.17-1.39.32-2.09.44q-.57.11-1.14.18l-.21,0-.66.07a1.7,1.7,0,0,0-1.65,1.66,1.67,1.67,0,0,0,1.65,1.66,33.84,33.84,0,0,0,9.21-2.2,1.71,1.71,0,0,0,1.16-2,1.68,1.68,0,0,0-2-1.16Z" transform="translate(-432.89 -143.72)"/><path class="cls-38" d="M653.32,506.07c-2.53,1.16-5.31,2.35-8,1.59a6.27,6.27,0,0,1-4.1-3.84" transform="translate(-432.89 -143.72)"/><path class="cls-40" d="M652.49,504.64c-1.87.86-4,1.86-6.09,1.57a4.46,4.46,0,0,1-.8-.2l-.33-.11c.13.05.1,0-.08,0s-.41-.22-.61-.35l-.29-.2c.1.08.08.06-.08-.07a5.84,5.84,0,0,1-.51-.49,2.85,2.85,0,0,1-.23-.26l-.06-.09a4.67,4.67,0,0,1-.38-.6c-.06-.11-.11-.21-.16-.32,0,.13,0,.09,0-.1a1.7,1.7,0,0,0-2-1.15,1.66,1.66,0,0,0-1.15,2,8,8,0,0,0,5.67,5.1c3.12.65,6.07-.59,8.85-1.86a1.67,1.67,0,0,0,.59-2.27,1.7,1.7,0,0,0-2.26-.59Z" transform="translate(-432.89 -143.72)"/></g><path class="cls-43" d="M649.05,509.62l-5.3-1.67a28.15,28.15,0,0,0-13.24-1.81c-.51-.21-3.42-1.22-5.17-1.95a18.44,18.44,0,0,0-4.34-1.51c-1.11-.2-2,.28-4.52.49-1.33.11-1.6.07-4,.22-.29.58-.91,3.24-.3,4a7,7,0,0,0,3.57,2.56,12.14,12.14,0,0,0,4.59.45,7.37,7.37,0,0,1,4.18,2.65,6.13,6.13,0,0,1-2.56,9.9l-8.39,2.45-6.23-1.91a5,5,0,0,0-1.86-2.76,4.25,4.25,0,0,0-5.12.4l3,6.6,7.33,3.89,5.53.75,5.88,2.81,1.9-.49,3.45,2,2.33-.6.14,0,3.47,1.29,6-3.42.56-.33,1-.66.67-.44,9.52-5.26,8-.84" transform="translate(-432.89 -143.72)"/><path class="cls-90" d="M691.34,369.05a9.48,9.48,0,0,1,2.9-1.57,2.87,2.87,0,0,1,2-.2,2.69,2.69,0,0,1,1.25,1.27c.93,1.61-.61,4.26-3.45,5.89a9.59,9.59,0,0,1-1.2.6c-.35,3-.61,6.2-.74,9.63s-.12,6.67,0,9.67a25.37,25.37,0,0,0,.49,6.8,3,3,0,0,1,.07,1.2,3,3,0,0,1-6-.44,3,3,0,0,1,.78-2l1-24.4h.09l-.09,0v0a5.61,5.61,0,0,1-5-.15,4.72,4.72,0,0,1-1.66-1.81l7.77-2.05h0C690.07,370.65,690.71,369.85,691.34,369.05Z" transform="translate(-432.89 -143.72)"/><path class="cls-90" d="M636.35,368.9a10,10,0,0,0-2.89-1.57,2.87,2.87,0,0,0-2-.19,2.66,2.66,0,0,0-1.25,1.26c-.93,1.62.61,4.26,3.45,5.9a11.19,11.19,0,0,0,1.2.6c.35,3,.61,6.2.74,9.63s.12,6.66,0,9.67a25.47,25.47,0,0,1-.49,6.8,3,3,0,0,0-.07,1.2,3,3,0,0,0,6-.44,3,3,0,0,0-.78-2l-1-24.4h-.09l.09,0v0a5.61,5.61,0,0,0,5-.15,4.79,4.79,0,0,0,1.66-1.81l-7.77-2.06h0C637.62,370.51,637,369.71,636.35,368.9Z" transform="translate(-432.89 -143.72)"/><path class="cls-45" d="M689,321.38s0,.86.09,2.42c.48,13.89,2.69,83.4-.83,93l12.84-7.13,2.54-16.57,1.51,16.57,8.28-5.08V382.2l4.26,18.3,6.21-3.33s16.88-33.17-4-83.41c0,0-21.1-23.95-36.81-22.79" transform="translate(-432.89 -143.72)"/><g class="cls-91"><path class="cls-47" d="M727.36,324.71l-4.17-20.14a384.06,384.06,0,0,1-55.72,5.71,386.4,386.4,0,0,1-73.2-4.81l-1.18,24.35a199.3,199.3,0,0,1,74.11-14.13A201.63,201.63,0,0,1,727.36,324.71Z" transform="translate(-432.89 -143.72)"/></g><path class="cls-92" d="M689,321.38s0,.86.09,2.42c.48,13.89,2.69,83.4-.83,93l12.84-7.13,2.54-16.57,1.51,16.57,8.28-5.08V382.2l4.26,18.3,6.21-3.33s16.88-33.17-4-83.41c0,0-21.1-23.95-36.81-22.79" transform="translate(-432.89 -143.72)"/><path class="cls-45" d="M632.48,318s0,.84-.05,2.37c-.27,13.6-1.51,81.69.46,91.1l-7.18-7-1.42-16.23-.85,16.23-4.62-5V377.55l-2.38,17.92L613,392.21s-5.48-30.5,6.22-79.71c0,0,9.85-23.19,18.63-22.06" transform="translate(-432.89 -143.72)"/><g class="cls-93"><path class="cls-47" d="M691.9,324.48l-2.62-20.14a154.63,154.63,0,0,1-81.13.9l-.74,24.35c8.21-5.26,24.73-14.1,46.63-14.13A85,85,0,0,1,691.9,324.48Z" transform="translate(-432.89 -143.72)"/></g><path class="cls-94" d="M632.48,318s0,.84-.05,2.37c-.27,13.6-1.51,81.69.46,91.1l-7.18-7-1.42-16.23-.85,16.23-4.62-5V377.55l-2.38,17.92L613,392.21s-5.48-30.5,6.22-79.71c0,0,9.85-23.19,18.63-22.06" transform="translate(-432.89 -143.72)"/><ellipse class="cls-9" cx="662.24" cy="461.5" rx="3.22" ry="1.61" transform="translate(-570.91 423.23) rotate(-42.38)"/><ellipse class="cls-9" cx="673.49" cy="479.99" rx="3.22" ry="1.61" transform="translate(-580.44 435.65) rotate(-42.38)"/><path class="cls-95" d="M873.2,469.66c-11.86.5-18.72,9.72-35.05,27.44-7.87,8.53-19.66,20.91-35.06,35.52l-175,8.77s-8.33-1.45-7.79,22.46-3.26,181.69-3.26,181.69l10.15,7.24,226.06-13s12.5.72,6.16-19.74c-4.9-15.82-6.5-45.37-7-58a110.61,110.61,0,0,1,.47-12.82c2-29.77,12-60.05,31.77-113.82,11.92-32.44,17.35-46.12,10-56.2C889.76,472.48,880.66,469.34,873.2,469.66Z" transform="translate(-432.89 -143.72)"/></svg>