<svg id="Capa_1" data-name="Capa 1" xmlns="http://www.w3.org/2000/svg" xmlns:xlink="http://www.w3.org/1999/xlink" viewBox="0 0 1417.78 1530"><defs><style>.cls-1{fill:url(#Degradado_sin_nombre_7);}.cls-2,.cls-8{fill:#eaf3e2;}.cls-11,.cls-2{stroke:#a9c4ba;stroke-miterlimit:10;stroke-width:2px;}.cls-3{clip-path:url(#clip-path);}.cls-4{opacity:0.5;}.cls-5{fill:url(#Degradado_sin_nombre_40);}.cls-6{fill:#489fb5;}.cls-7{fill:#16697a;}.cls-9{clip-path:url(#clip-path-2);}.cls-10{fill:#a9c4ba;opacity:0.3;}.cls-11{fill:none;}.cls-12{clip-path:url(#clip-path-3);}.cls-13{clip-path:url(#clip-path-4);}.cls-14{clip-path:url(#clip-path-5);}.cls-15{clip-path:url(#clip-path-6);}</style><linearGradient id="Degradado_sin_nombre_7" x1="675.85" y1="12.74" x2="666.5" y2="1730.69" gradientUnits="userSpaceOnUse"><stop offset="0.05" stop-color="#29abe2"/><stop offset="0.24" stop-color="#8dc1d9"/><stop offset="0.38" stop-color="#c5efea"/></linearGradient><clipPath id="clip-path" transform="translate(-11.2 63.94)"><path class="cls-1" d="M1024.1,121.71c-22.39,16.62-58,38.39-105,47-104.34,19.13-139.38-49.61-238-39-96.92,10.44-113.15,82.2-215,89-60.69,4.06-111.42-17.64-143-35q-1,110.5-1,221-.09,171,2,342a1755.84,1755.84,0,0,0,331,32,1756.5,1756.5,0,0,0,368.75-38.57Q1024,430.93,1024.1,121.71Z"/></clipPath><radialGradient id="Degradado_sin_nombre_40" cx="725.99" cy="937.22" r="710.03" gradientTransform="translate(-4.73 -308.72) scale(1 1.08)" gradientUnits="userSpaceOnUse"><stop offset="0" stop-color="#8dc1d9"/><stop offset="0.78" stop-color="#29abe2"/></radialGradient><clipPath id="clip-path-2" transform="translate(-11.2 63.94)"><path class="cls-2" d="M1025.78,408.15c1.51-12.77,12.45-22.17,24.53-21.82,10.9.32,20.54,8.5,22.8,19.8,11.8-8,24.94-4.92,28.72,2,2.52,4.62,1.07,11.25-2.59,16.77,13.71,2,20,3.63,20,5-.27,6.26-142.15,9.52-143.24-1.06-.23-2.33,6.36-5.19,16.75-8.24a23.73,23.73,0,0,1,8.51-10.84C1012,402.41,1024.75,407.71,1025.78,408.15Z"/></clipPath><clipPath id="clip-path-3" transform="translate(-11.2 63.94)"><path class="cls-2" d="M1068.79,233.82c-2.3-19.31-18.82-33.52-37.09-33-16.48.48-31.05,12.86-34.47,29.94-17.84-12.13-37.69-7.44-43.42,3-3.8,7-1.61,17,3.93,25.35-20.74,3-30.29,5.48-30.21,7.49.41,9.47,214.88,14.4,216.52-1.59.36-3.52-9.61-7.85-25.3-12.46a36,36,0,0,0-12.88-16.38C1089.63,225.14,1070.34,233.15,1068.79,233.82Z"/></clipPath><clipPath id="clip-path-4" transform="translate(-11.2 63.94)"><path class="cls-2" d="M644.91,213.94c1-7.74,8.28-13.44,16.32-13.22,7.25.19,13.66,5.15,15.17,12,7.85-4.86,16.59-3,19.1,1.23,1.68,2.79.72,6.81-1.72,10.15,9.12,1.2,13.33,2.2,13.29,3-.18,3.79-94.56,5.77-95.28-.64-.16-1.41,4.23-3.14,11.13-5a14.6,14.6,0,0,1,5.67-6.56C635.74,210.45,644.22,213.66,644.91,213.94Z"/></clipPath><clipPath id="clip-path-5" transform="translate(-11.2 63.94)"><path class="cls-2" d="M512.94,497.69c-1.94-16.27-15.87-28.25-31.26-27.8-13.89.4-26.17,10.83-29.06,25.23-15-10.22-31.76-6.27-36.59,2.57-3.21,5.89-1.36,14.34,3.31,21.37-17.48,2.53-25.53,4.62-25.46,6.31.34,8,181.11,12.14,182.49-1.34.31-3-8.1-6.61-21.33-10.5a30.23,30.23,0,0,0-10.85-13.81C530.5,490.37,514.25,497.12,512.94,497.69Z"/></clipPath><clipPath id="clip-path-6" transform="translate(-11.2 63.94)"><path class="cls-2" d="M354,341.77a15.45,15.45,0,0,1,30.61-1.31c7.63-5.18,16.12-3.18,18.57,1.31,1.63,3,.69,7.27-1.68,10.84,8.87,1.29,13,2.35,12.92,3.21-.17,4.05-91.91,6.15-92.61-.69-.15-1.5,4.11-3.35,10.83-5.32a15.22,15.22,0,0,1,5.5-7C345.07,338.06,353.32,341.48,354,341.77Z"/></clipPath></defs><path class="cls-1" d="M1024.1,121.71c-22.39,16.62-58,38.39-105,47-104.34,19.13-139.38-49.61-238-39-96.92,10.44-113.15,82.2-215,89-60.69,4.06-111.42-17.64-143-35q-1,110.5-1,221-.09,171,2,342a1755.84,1755.84,0,0,0,331,32,1756.5,1756.5,0,0,0,368.75-38.57Q1024,430.93,1024.1,121.71Z" transform="translate(-11.2 63.94)"/><g class="cls-3"><g class="cls-4"><path class="cls-5" d="M720.1,1466.06c-14.68,0-29.53-.5-44.12-1.47l43.36-758.87c8.9.59-9,0,0,0h0l2.86,760.33Zm48.19-1.75L719.34,705.72c9.33-.68-9.24,1.33,0,0l95,753.62C799.11,1461.52,783.62,1463.2,768.29,1464.31Zm-138.37-4.4c-15.26-2.1-30.64-4.76-45.73-7.93L719.34,705.72c9.14,1.92-9.25-1.27,0,0ZM860,1451.13,719.34,705.72c9.11-2-9,2.62,0,0l185.82,734C890.29,1444,875.11,1447.87,860,1451.13Zm-321-10.31c-14.9-4.23-29.85-9.06-44.45-14.34l224.8-720.76c8.8,3.19-9-2.56,0,0Zm410.52-15.76L719.34,705.72c8.77-3.24-8.57,3.86,0,0l273.47,701.63C978.62,1413.74,964.05,1419.7,949.51,1425.06ZM451,1409c-14.26-6.32-28.5-13.23-42.34-20.54L719.34,705.72c8.36,4.42-8.62-3.82,0,0Zm583.9-22.36L719.34,705.72c8.31-4.45-8.06,5,0,0L1075.7,1363C1062.4,1371.3,1048.68,1379.26,1034.92,1386.62ZM367.72,1365c-13.33-8.26-26.6-17.1-39.42-26.29l391-633c7.78,5.58-8.09-5,0,0Zm747.21-28.49L719.34,705.72c7.73-5.6-7.4,6.15,0,0l433.14,601.59C1140.31,1317.43,1127.68,1327.25,1114.93,1336.48Zm-824.35-26.79c-12.22-10.06-24.29-20.68-35.88-31.57l464.64-572.4c7,6.62-7.43-6.11,0,0Zm897.59-34.11L719.34,705.72c7-6.64-6.61,7.14,0,0L1221.9,1241.4C1211.05,1253.14,1199.7,1264.64,1188.17,1275.58Zm-967.35-31.45c-10.9-11.67-21.58-23.88-31.76-36.29L719.34,705.72c6.19,7.55-6.63-7.1,0,0Zm1032.68-39.19L719.34,705.72c6.15-7.58-5.69,8,0,0l563.51,460.59C1273.5,1179.47,1263.62,1192.47,1253.5,1204.94ZM159.55,1169.4c-9.42-13.11-18.55-26.72-27.14-40.44L719.34,705.72c5.21,8.33-5.73-8,0,0Zm1150.27-43.71-590.48-420c5.18-8.37-4.67,8.72,0,0l615,377.51C1326.61,1097.6,1318.37,1111.89,1309.82,1125.69Zm-1202.06-39c-7.76-14.32-15.17-29.1-22-43.92L719.34,705.72c4.15,9-4.7-8.67,0,0Zm1248.41-47.61L719.34,705.72c4.12-9-3.56,9.28,0,0l656,287.74C1369.43,1008.82,1363,1024.17,1356.17,1039.09ZM66.39,997.38c-6-15.29-11.53-31-16.54-46.67l669.49-245c3,9.46-3.6-9.24,0,0Zm1325.27-50.83L719.34,705.72c3-9.5-2.4,9.7,0,0l685.74,192.92C1401.11,914.7,1396.59,930.82,1391.66,946.55ZM36.17,902.88c-4.05-16-7.66-32.4-10.73-48.68l693.9-148.48c1.85,9.84-2.45-9.68,0,0Zm1379.38-53L719.34,705.72c1.8-9.85-1.21,10,0,0L1423,800.55C1421,817,1418.53,833.61,1415.55,849.88ZM17.7,804.91C15.63,788.49,14,771.77,13,755.22l706.38-49.5c.65,10-1.26-10,0,0Zm1409.8-54L719.34,705.72c.6-10.06,0,10.13,0,0,0-1.77,0,1.77,0,0l709.6-13.39q0,4.35,0,8.73C1429,717.62,1428.49,734.38,1427.5,750.86ZM11.22,705.46c0-1.47,0-2.93,0-4.4,0-15.11.42-30.4,1.24-45.44l706.9,50.1c-.5,9.18,0-9.24,0,0,0,.88,0-.88,0,0Zm708.12.26c-.71-10.05,1.3,10,0,0l702.6-112.82c2.15,16.41,3.83,33.11,5,49.65Zm0,0L16.65,605.92c1.9-16.49,4.32-33.1,7.21-49.39L719.34,705.72C717.59,715.58,720.49,695.73,719.34,705.72Zm0,0c-1.91-9.83,2.5,9.66,0,0L1402.94,495c4.14,16,7.84,32.35,11,48.61Zm0,0-685.27-198c3.88-16.07,8.31-32.22,13.17-48l672.1,246C716.4,715.25,721.68,696,719.34,705.72Zm0,0c-3.08-9.44,3.65,9.22,0,0l652.89-305c6,15.26,11.69,30.93,16.78,46.57Zm0,0-656-293c5.81-15.39,12.17-30.78,18.9-45.74L719.34,705.72C715.26,714.77,722.85,696.41,719.34,705.72Zm0,0c-4.21-8.94,4.74,8.65,0,0l611-394.07c7.84,14.28,15.33,29,22.27,43.79Zm0,0-615.47-383c7.61-14.41,15.77-28.75,24.25-42.62L719.34,705.72C714.19,714.13,724,697,719.34,705.72Zm0,0c-5.27-8.31,5.75,7.92,0,0l558.82-476.45c9.48,13,18.68,26.59,27.35,40.27Zm0,0L154.88,239.28C164.16,226.08,174,213,184,200.48L719.34,705.72C713.22,713.35,725,697.69,719.34,705.72Zm0,0c-6.24-7.52,6.66,7.06,0,0L1216.5,154.93c11,11.59,21.7,23.73,31.94,36.08Zm0,0L215.43,163.82C226.22,152,237.5,140.45,249,129.43L719.34,705.72C712.36,712.42,725.89,698.55,719.34,705.72Zm0,0c-7.08-6.58,7.45,6.07,0,0L1146.4,89.8c12.26,10,24.39,20.52,36,31.33Zm0,0L284.5,97.48c12.11-10.19,24.69-20.08,37.39-29.4L719.34,705.72C711.62,711.38,726.69,699.53,719.34,705.72Zm0,0c-7.81-5.53,8.11,5,0,0L1069,35c13.37,8.17,26.68,16.94,39.56,26.05Zm0,0L361,41.36C374.23,33,387.9,24.91,401.62,17.45L719.34,705.72C711,710.24,727.36,700.63,719.34,705.72Zm0,0c-8.39-4.37,8.63,3.76,0,0L985.41-8.52C999.7-2.29,1014,4.53,1027.87,11.76Zm0,0L443.64-3.55c14.15-6.47,28.68-12.51,43.2-18l232.5,727.24C710.57,709,727.88,701.81,719.34,705.72Zm0,0c-8.83-3.13,9,2.5,0,0L897.28-39.81c14.91,4.14,29.89,8.87,44.52,14.07Zm0,0L531.12-36.42c14.83-4.42,30-8.36,45.08-11.72L719.34,705.72C710.22,707.75,728.29,703.05,719.34,705.72Zm0,0c-9.13-1.86,9.26,1.21,0,0L806.25-58.34c15.3,2,30.7,4.58,45.8,7.65Zm0,0L621.86-56.64c15.19-2.28,30.67-4,46-5.25l51.47,767.61C710,706.46,728.56,704.34,719.34,705.72Zm0,0c-9.33-.56,9.38-.09,0,0L714-63.92c15.32-.14,30.86.26,46.14,1.18Z" transform="translate(-11.2 63.94)"/></g><polygon class="cls-6" points="232.11 592.52 282.35 540.55 282.35 647.02 302.95 647.02 302.95 599.71 320.49 599.25 345.61 575.02 416.31 575.02 416.31 600.91 436.78 600.18 436.78 850.65 505.09 850.65 505.09 540.55 553.53 540.55 553.07 510.74 621.11 510.74 621.11 541.02 659.12 541.48 686.1 569.43 686.1 620.07 778.2 620.67 778.2 560.18 794.94 539.62 794.94 457.77 839.6 457.64 859.13 480 859.13 590.86 889.84 590.86 889.84 733.87 906.58 733.87 906.58 644.03 939.14 611.36 970.77 611.36 970.77 747.04 1015.42 747.38 1015.42 651.82 1029.38 651.82 1029.38 610.49 1087.06 553.6 1087.06 811.72 1104.73 810.73 1104.73 666.19 1140.09 666.32 1160.55 643.03 1267.54 645.23 1267.54 850.65 232.11 861.43 232.11 592.52"/><polygon class="cls-7" points="358.63 861.97 232.11 861.97 232.11 756.69 313.05 756.69 358.63 778.12 358.63 861.97"/><polygon class="cls-7" points="313.98 762.28 273.04 762.28 273.04 725.95 293.51 707.32 313.98 725.95 313.98 762.28"/><rect class="cls-7" x="351.19" y="828.43" width="916.35" height="33.54"/><polygon class="cls-7" points="441.43 657.94 442.36 835.88 373.52 835.88 373.52 668.19 424.85 668.19 424.68 657.94 441.43 657.94"/><rect class="cls-7" x="436.78" y="674.71" width="34.42" height="164.9"/><rect class="cls-7" x="459.1" y="668.19" width="12.09" height="9.32"/><polygon class="cls-7" points="471.2 828.43 471.2 775.99 481.46 775.99 481.46 626.26 545.62 599.25 545.62 814.92 568.88 814.92 568.88 690.35 588.42 690.35 588.42 678.67 611.67 678.67 611.67 689.15 630.28 689.61 630.28 780.18 647.03 779.98 647.03 640.64 665.63 622.54 665.63 571.76 681.51 571.76 701.91 549.87 719.59 572.23 735.4 572.23 735.4 623.87 753.08 638.37 753.08 726.28 760.52 726.28 760.52 610.09 809.36 657.94 809.36 806.53 819.13 806.53 819.13 757.16 828.43 757.16 828.43 746.44 845.98 746.91 845.98 736.06 869.37 736.2 869.37 747.64 910.3 747.38 908.17 828.43 937.28 828.43 937.28 673.78 954.02 673.78 967.05 659.8 1006.12 659.8 1017.29 670.98 1030.31 671.91 1030.31 758.82 1049.85 758.82 1064.86 743.78 1078.69 743.65 1078.69 715.7 1114.97 715.7 1114.97 744.45 1136.37 744.45 1136.37 789.16 1154.97 789.16 1154.97 689.15 1184.74 708.25 1184.74 790.76 1208 790.76 1208 557.69 1267.54 621.47 1267.54 828.43 1267.54 861.97 471.2 828.43"/><path class="cls-8" d="M1025.78,408.15c1.51-12.77,12.45-22.17,24.53-21.82,10.9.32,20.54,8.5,22.8,19.8,11.8-8,24.94-4.92,28.72,2,2.52,4.62,1.07,11.25-2.59,16.77,13.71,2,20,3.63,20,5-.27,6.26-142.15,9.52-143.24-1.06-.23-2.33,6.36-5.19,16.75-8.24a23.73,23.73,0,0,1,8.51-10.84C1012,402.41,1024.75,407.71,1025.78,408.15Z" transform="translate(-11.2 63.94)"/><g class="cls-9"><path class="cls-10" d="M1028.38,418.68c1.11-9.34,9.11-16.21,17.94-16A17.84,17.84,0,0,1,1063,417.2c8.63-5.86,18.23-3.6,21,1.48,1.84,3.38.78,8.22-1.9,12.26,10,1.45,14.65,2.65,14.61,3.62-.19,4.58-103.92,7-104.72-.77-.17-1.7,4.65-3.79,12.24-6a17.35,17.35,0,0,1,6.23-7.93C1018.3,414.48,1027.63,418.35,1028.38,418.68Z" transform="translate(-11.2 63.94)"/></g><path class="cls-11" d="M1025.78,408.15c1.51-12.77,12.45-22.17,24.53-21.82,10.9.32,20.54,8.5,22.8,19.8,11.8-8,24.94-4.92,28.72,2,2.52,4.62,1.07,11.25-2.59,16.77,13.71,2,20,3.63,20,5-.27,6.26-142.15,9.52-143.24-1.06-.23-2.33,6.36-5.19,16.75-8.24a23.73,23.73,0,0,1,8.51-10.84C1012,402.41,1024.75,407.71,1025.78,408.15Z" transform="translate(-11.2 63.94)"/><path class="cls-8" d="M1068.79,233.82c-2.3-19.31-18.82-33.52-37.09-33-16.48.48-31.05,12.86-34.47,29.94-17.84-12.13-37.69-7.44-43.42,3-3.8,7-1.61,17,3.93,25.35-20.74,3-30.29,5.48-30.21,7.49.41,9.47,214.88,14.4,216.52-1.59.36-3.52-9.61-7.85-25.3-12.46a36,36,0,0,0-12.88-16.38C1089.63,225.14,1070.34,233.15,1068.79,233.82Z" transform="translate(-11.2 63.94)"/><g class="cls-12"><path class="cls-10" d="M1064.84,249.73c-1.67-14.12-13.76-24.5-27.11-24.12-12,.35-22.7,9.4-25.2,21.89-13-8.87-27.56-5.44-31.74,2.23-2.79,5.11-1.19,12.43,2.87,18.53-15.16,2.2-22.15,4-22.09,5.48.3,6.92,157.1,10.53,158.3-1.17.27-2.57-7-5.73-18.5-9.1a26.3,26.3,0,0,0-9.41-12C1080.08,243.38,1066,249.24,1064.84,249.73Z" transform="translate(-11.2 63.94)"/></g><path class="cls-11" d="M1068.79,233.82c-2.3-19.31-18.82-33.52-37.09-33-16.48.48-31.05,12.86-34.47,29.94-17.84-12.13-37.69-7.44-43.42,3-3.8,7-1.61,17,3.93,25.35-20.74,3-30.29,5.48-30.21,7.49.41,9.47,214.88,14.4,216.52-1.59.36-3.52-9.61-7.85-25.3-12.46a36,36,0,0,0-12.88-16.38C1089.63,225.14,1070.34,233.15,1068.79,233.82Z" transform="translate(-11.2 63.94)"/><path class="cls-8" d="M644.91,213.94c1-7.74,8.28-13.44,16.32-13.22,7.25.19,13.66,5.15,15.17,12,7.85-4.86,16.59-3,19.1,1.23,1.68,2.79.72,6.81-1.72,10.15,9.12,1.2,13.33,2.2,13.29,3-.18,3.79-94.56,5.77-95.28-.64-.16-1.41,4.23-3.14,11.13-5a14.6,14.6,0,0,1,5.67-6.56C635.74,210.45,644.22,213.66,644.91,213.94Z" transform="translate(-11.2 63.94)"/><g class="cls-13"><path class="cls-10" d="M646.64,220.31c.74-5.66,6.06-9.82,11.94-9.66a11.58,11.58,0,0,1,11.09,8.76c5.74-3.55,12.12-2.18,14,.9,1.23,2,.53,5-1.26,7.42,6.67.88,9.75,1.61,9.72,2.2-.13,2.77-69.13,4.21-69.66-.47-.12-1,3.09-2.3,8.14-3.65a10.67,10.67,0,0,1,4.14-4.8C639.94,217.76,646.14,220.11,646.64,220.31Z" transform="translate(-11.2 63.94)"/></g><path class="cls-11" d="M644.91,213.94c1-7.74,8.28-13.44,16.32-13.22,7.25.19,13.66,5.15,15.17,12,7.85-4.86,16.59-3,19.1,1.23,1.68,2.79.72,6.81-1.72,10.15,9.12,1.2,13.33,2.2,13.29,3-.18,3.79-94.56,5.77-95.28-.64-.16-1.41,4.23-3.14,11.13-5a14.6,14.6,0,0,1,5.67-6.56C635.74,210.45,644.22,213.66,644.91,213.94Z" transform="translate(-11.2 63.94)"/></g><path class="cls-8" d="M512.94,497.69c-1.94-16.27-15.87-28.25-31.26-27.8-13.89.4-26.17,10.83-29.06,25.23-15-10.22-31.76-6.27-36.59,2.57-3.21,5.89-1.36,14.34,3.31,21.37-17.48,2.53-25.53,4.62-25.46,6.31.34,8,181.11,12.14,182.49-1.34.31-3-8.1-6.61-21.33-10.5a30.23,30.23,0,0,0-10.85-13.81C530.5,490.37,514.25,497.12,512.94,497.69Z" transform="translate(-11.2 63.94)"/><g class="cls-14"><path class="cls-10" d="M509.61,511.1c-1.41-11.9-11.59-20.65-22.85-20.33-10.15.3-19.13,7.92-21.24,18.45-11-7.47-23.23-4.59-26.75,1.88-2.35,4.31-1,10.48,2.42,15.62-12.78,1.85-18.67,3.38-18.62,4.62.25,5.83,132.41,8.87,133.42-1,.23-2.16-5.92-4.83-15.59-7.67a22.22,22.22,0,0,0-7.93-10.1C522.46,505.75,510.57,510.69,509.61,511.1Z" transform="translate(-11.2 63.94)"/></g><path class="cls-11" d="M512.94,497.69c-1.94-16.27-15.87-28.25-31.26-27.8-13.89.4-26.17,10.83-29.06,25.23-15-10.22-31.76-6.27-36.59,2.57-3.21,5.89-1.36,14.34,3.31,21.37-17.48,2.53-25.53,4.62-25.46,6.31.34,8,181.11,12.14,182.49-1.34.31-3-8.1-6.61-21.33-10.5a30.23,30.23,0,0,0-10.85-13.81C530.5,490.37,514.25,497.12,512.94,497.69Z" transform="translate(-11.2 63.94)"/><path class="cls-8" d="M354,341.77a15.45,15.45,0,0,1,30.61-1.31c7.63-5.18,16.12-3.18,18.57,1.31,1.63,3,.69,7.27-1.68,10.84,8.87,1.29,13,2.35,12.92,3.21-.17,4.05-91.91,6.15-92.61-.69-.15-1.5,4.11-3.35,10.83-5.32a15.22,15.22,0,0,1,5.5-7C345.07,338.06,353.32,341.48,354,341.77Z" transform="translate(-11.2 63.94)"/><g class="cls-15"><path class="cls-10" d="M355.67,348.58a11.29,11.29,0,0,1,22.38-1c5.58-3.79,11.78-2.33,13.57,1,1.2,2.18.51,5.31-1.22,7.92,6.48.94,9.47,1.72,9.44,2.34-.12,3-67.19,4.51-67.71-.49-.11-1.11,3-2.46,7.92-3.9a11.27,11.27,0,0,1,4-5.12C349.15,345.86,355.18,348.36,355.67,348.58Z" transform="translate(-11.2 63.94)"/></g><path class="cls-11" d="M354,341.77a15.45,15.45,0,0,1,30.61-1.31c7.63-5.18,16.12-3.18,18.57,1.31,1.63,3,.69,7.27-1.68,10.84,8.87,1.29,13,2.35,12.92,3.21-.17,4.05-91.91,6.15-92.61-.69-.15-1.5,4.11-3.35,10.83-5.32a15.22,15.22,0,0,1,5.5-7C345.07,338.06,353.32,341.48,354,341.77Z" transform="translate(-11.2 63.94)"/></svg>