<svg id="Capa_1" data-name="Capa 1" xmlns="http://www.w3.org/2000/svg" xmlns:xlink="http://www.w3.org/1999/xlink" viewBox="0 0 1058 401.36"><defs><style>.cls-1{fill:url(#Degradado_sin_nombre_4);}</style><linearGradient id="Degradado_sin_nombre_4" x1="191" y1="449.77" x2="1249" y2="449.77" gradientUnits="userSpaceOnUse"><stop offset="0.18" stop-color="#8dc1d9"/><stop offset="0.66" stop-color="#c5efea"/></linearGradient></defs><path class="cls-1" d="M1247,466.31,1151.08,551a164.46,164.46,0,0,1-96.16,40.33Q910,602.43,765.38,616.16q-158.52,15-316.72,33.19c-65.18,7.48-128.57-23.84-160.34-79.25-31.29-54.58-66-113-97.32-167.57V270.82c61.7,0,155.5-.67,270-4.38,169.4-5.47,240.47-12.91,340-16,105.61-3.27,258.33-2.1,448,20.38C1248.67,303.4,1248.33,336,1247,466.31Z" transform="translate(-191 -249.09)"/></svg>