<svg xmlns="http://www.w3.org/2000/svg" xmlns:xlink="http://www.w3.org/1999/xlink" viewBox="0 0 443.4 273.78"><defs><style>.cls-1,.cls-11,.cls-14,.cls-7{fill:#fff;}.cls-2{fill:#028090;}.cls-3{fill:#00b2ca;}.cls-4{fill:#02c39a;}.cls-5{isolation:isolate;}.cls-6{fill:#036666;}.cls-7{stroke:#72b7ad;stroke-width:0.5px;}.cls-20,.cls-7{stroke-miterlimit:10;}.cls-8{clip-path:url(#clip-path);}.cls-9{fill:#eaf6fb;opacity:0.7;}.cls-10{clip-path:url(#clip-path-2);}.cls-11{opacity:0.32;}.cls-11,.cls-14{mix-blend-mode:soft-light;}.cls-12{fill:#3eb0e0;}.cls-13{opacity:0.22;mix-blend-mode:multiply;}.cls-14{opacity:0.5;}.cls-15{fill:#c5efea;}.cls-16{fill:#3aa0cc;}.cls-17{clip-path:url(#clip-path-3);}.cls-18{fill:#094763;}.cls-19{fill:#066269;}.cls-20{fill:none;stroke:#000;}.cls-21{clip-path:url(#clip-path-4);}.cls-22{fill:#0494b5;}.cls-23{clip-path:url(#clip-path-5);}.cls-24{fill:#0fa884;}</style><clipPath id="clip-path" transform="translate(-50.09 -20.75)"><path class="cls-1" d="M103,134.1A13.53,13.53,0,0,0,76.2,133c-6.68-4.53-14.12-2.78-16.27,1.15-1.42,2.61-.6,6.36,1.47,9.48-7.76,1.12-11.34,2-11.31,2.8.15,3.54,80.5,5.38,81.11-.6.14-1.31-3.6-2.93-9.48-4.66A13.44,13.44,0,0,0,116.9,135C110.81,130.85,103.59,133.84,103,134.1Z"/></clipPath><clipPath id="clip-path-2" transform="translate(-50.09 -20.75)"><path class="cls-1" d="M457.19,36.64a17.41,17.41,0,0,0-34.5-1.47c-8.6-5.84-18.17-3.58-20.93,1.47-1.84,3.36-.78,8.19,1.89,12.2-10,1.45-14.6,2.64-14.56,3.61.19,4.56,103.6,6.93,104.39-.77.18-1.69-4.63-3.77-12.2-6a17.27,17.27,0,0,0-6.2-7.89C467.24,32.46,458,36.31,457.19,36.64Z"/></clipPath><clipPath id="clip-path-3" transform="translate(-50.09 -20.75)"><rect class="cls-2" x="126.49" y="213.51" width="43.74" height="54.16" rx="2.58"/></clipPath><clipPath id="clip-path-4" transform="translate(-50.09 -20.75)"><rect class="cls-3" x="104.49" y="224.33" width="35" height="43.33" rx="2.58"/></clipPath><clipPath id="clip-path-5" transform="translate(-50.09 -20.75)"><rect class="cls-4" x="370.67" y="231.24" width="30.82" height="38.16" rx="2.58"/></clipPath></defs><g class="cls-5"><g id="Capa_1" data-name="Capa 1"><rect class="cls-6" x="37.4" y="241.92" width="341" height="14" rx="6.11"/><rect class="cls-7" x="105.91" y="65.92" width="223" height="181" rx="24.5"/><path class="cls-1" d="M103,134.1A13.53,13.53,0,0,0,76.2,133c-6.68-4.53-14.12-2.78-16.27,1.15-1.42,2.61-.6,6.36,1.47,9.48-7.76,1.12-11.34,2-11.31,2.8.15,3.54,80.5,5.38,81.11-.6.14-1.31-3.6-2.93-9.48-4.66A13.44,13.44,0,0,0,116.9,135C110.81,130.85,103.59,133.84,103,134.1Z" transform="translate(-50.09 -20.75)"/><g class="cls-8"><path class="cls-9" d="M101.53,140.05a9.89,9.89,0,0,0-19.6-.84c-4.89-3.32-10.32-2-11.89.84-1,1.91-.44,4.65,1.07,6.93-5.68.82-8.29,1.5-8.27,2.05.11,2.59,58.85,3.93,59.3-.44.1-1-2.63-2.14-6.93-3.4a9.81,9.81,0,0,0-3.52-4.49C107.24,137.67,102,139.86,101.53,140.05Z" transform="translate(-50.09 -20.75)"/></g><path class="cls-1" d="M457.19,36.64a17.41,17.41,0,0,0-34.5-1.47c-8.6-5.84-18.17-3.58-20.93,1.47-1.84,3.36-.78,8.19,1.89,12.2-10,1.45-14.6,2.64-14.56,3.61.19,4.56,103.6,6.93,104.39-.77.18-1.69-4.63-3.77-12.2-6a17.27,17.27,0,0,0-6.2-7.89C467.24,32.46,458,36.31,457.19,36.64Z" transform="translate(-50.09 -20.75)"/><g class="cls-10"><path class="cls-9" d="M455.29,44.3a12.73,12.73,0,0,0-25.22-1.08c-6.29-4.27-13.29-2.62-15.3,1.08-1.35,2.46-.58,6,1.38,8.92-7.31,1.06-10.68,1.93-10.65,2.64.14,3.33,75.75,5.06,76.33-.56.12-1.24-3.39-2.76-8.93-4.39a12.59,12.59,0,0,0-4.53-5.77C462.64,41.24,455.84,44.06,455.29,44.3Z" transform="translate(-50.09 -20.75)"/></g><path class="cls-11" d="M127.62,104.43l279.52,1.06,2.12,3.17h-284a1.1,1.1,0,0,0,.26-.53,1.14,1.14,0,0,0,0-.27c0-.21.1-.58.79-1.32Z" transform="translate(-50.09 -20.75)"/><path class="cls-12" d="M283.54,109.29c-.71,8.35-7.29,14.86-15.08,15.35-8.32.51-16-6-17-14.87h0a3.75,3.75,0,0,1,0-.47c0-.57.1-1.13.14-1.7,0-.15,0-.31,0-.47l0-.58c.53-6.37.9-12.75,1.21-19.12.64-12.62,1.09-25.23,2.22-37.84h24.69l3.61,57,0,.58Z" transform="translate(-50.09 -20.75)"/><path class="cls-1" d="M314.58,108.51c0,.17,0,.33,0,.5h0c-.2,8.25-6.58,15-14.29,15.6-8.71.68-16.82-6.72-16.74-16.24l-.09-1.26,0-.58-3.67-56.95H302.6l11.7,57c.06.31.12.62.19.93l.08.69C314.57,108.28,314.58,108.4,314.58,108.51Z" transform="translate(-50.09 -20.75)"/><path class="cls-12" d="M185.62,49.58l-26.2,54.85c-.34.71-.67,1.41-1,2.11l-.28.58-.82,1.73a19,19,0,0,1-.22,2,16.19,16.19,0,0,1-31.32,2.91,18,18,0,0,1-.66-2.31,6.1,6.1,0,0,1,.66-4.23l.07-.11,0-.07.31-.51,1.3-2.11,30.36-49.32a11.62,11.62,0,0,1,9.9-5.53Z" transform="translate(-50.09 -20.75)"/><path class="cls-1" d="M208.75,49.58l-19.88,57-.2.58-.41,1.17a14,14,0,0,1-.09,1.84C187.32,118.56,180,125,172,124.65a16,16,0,0,1-14.86-13.79,16.68,16.68,0,0,1-.17-2h0l.83-1.73h0l.28-.58,27.42-57Z" transform="translate(-50.09 -20.75)"/><path class="cls-12" d="M232.43,49.59l-11.61,57-.11.58-.27,1.29-.08.59h0a16.14,16.14,0,0,1-32.19,1.11c0-.46-.09-.92-.1-1.4l.56-1.61.2-.58,19.73-57h23.87Z" transform="translate(-50.09 -20.75)"/><path class="cls-1" d="M255.28,49.58l-2.44,37.84-1.23,19.12,0,.58,0,.47,0,.79c0,.47,0,.93,0,1.38h0c-.68,8.84-8.42,15.49-16.7,14.85-7.71-.59-14.09-7.35-14.29-15.6h0c0-.23,0-.44,0-.67h0l.12-1,.15-.76,11.7-56.95h22.85Z" transform="translate(-50.09 -20.75)"/><path class="cls-12" d="M409.89,111.46a16.29,16.29,0,0,1-32.2-2.61l-.83-1.73-.27-.58c-.34-.7-.68-1.4-1-2.11Q362.47,77,349.38,49.58h17.87a11.6,11.6,0,0,1,9.89,5.53l30.37,49.32,1.3,2.11.31.51,0,.07.06.11A6.05,6.05,0,0,1,409.89,111.46Z" transform="translate(-50.09 -20.75)"/><path class="cls-1" d="M378.08,108.85h0a14.86,14.86,0,0,1-.17,2,16,16,0,0,1-14.86,13.79c-8.1.33-15.37-6.09-16.23-14.52a16,16,0,0,1-.08-1.84l-.41-1.17-.2-.58-19.88-57h23.3l27.42,57,.28.58h0C377.52,107.7,377.8,108.27,378.08,108.85Z" transform="translate(-50.09 -20.75)"/><path class="cls-12" d="M346.93,108.73a12.79,12.79,0,0,1-.11,1.4A16.13,16.13,0,0,1,314.64,109h0a.66.66,0,0,1,0-.14l0-.31-.3-1.44-.12-.58q-5.81-28.47-11.61-56.95h23.88l19.73,57,.2.58Z" transform="translate(-50.09 -20.75)"/><g class="cls-13"><path class="cls-12" d="M283.4,107.12l.14,2.17c-.71,8.35-7.29,14.86-15.08,15.35-8.32.51-16-6-17-14.87-.68,8.84-8.42,15.49-16.7,14.85-7.71-.59-14.09-7.35-14.29-15.6h0c0-.23,0-.44,0-.67,0,.13-.06.27-.08.39s0,.19,0,.28h0a16.14,16.14,0,0,1-32.19,1.11C187.32,118.56,180,125,172,124.65a16,16,0,0,1-14.86-13.79,16.19,16.19,0,0,1-31.32,2.91,18,18,0,0,1-.66-2.31,6.1,6.1,0,0,1,.66-4.23l.07-.11,0-.07.31-.51H283.36Z" transform="translate(-50.09 -20.75)"/><path class="cls-12" d="M409.89,111.46a16.22,16.22,0,0,1-32-.6,16,16,0,0,1-14.86,13.79c-8.1.33-15.37-6.09-16.23-14.52A16.13,16.13,0,0,1,314.64,109h0a2.46,2.46,0,0,1,0-.28c0-.07,0-.15,0-.22,0,.17,0,.33,0,.5h0c-.2,8.25-6.58,15-14.29,15.6-8.71.68-16.82-6.72-16.74-16.24l-.09-1.26,0-.58H408.81l.31.51,0,.07.06.11A6.05,6.05,0,0,1,409.89,111.46Z" transform="translate(-50.09 -20.75)"/></g><polygon class="cls-14" points="358.72 85.8 76.1 85.8 77.4 83.68 357.42 83.68 358.72 85.8"/><path class="cls-15" d="M228.26,148.92h36.29a11.86,11.86,0,0,1,11.86,11.86v86.14a0,0,0,0,1,0,0h-60a0,0,0,0,1,0,0V160.78A11.86,11.86,0,0,1,228.26,148.92Z"/><rect class="cls-15" x="125.4" y="128.92" width="69" height="55" rx="10.43"/><circle class="cls-16" cx="264.9" cy="201.42" r="5.5"/><rect class="cls-2" x="76.4" y="192.76" width="43.74" height="54.16" rx="2.58"/><g class="cls-17"><path class="cls-18" d="M121.28,232.26c1,3.71,4.92,16.86,17.71,25,13.61,8.67,31.86,8.21,46.87-1,8.6,22.26,6.44,31.94,2.08,36.45-6.32,6.55-64.58-6.25-64.58-6.25h0Z" transform="translate(-50.09 -20.75)"/></g><circle class="cls-19" cx="85.69" cy="196.88" r="2.04"/><circle class="cls-19" cx="110.25" cy="196.88" r="2.04"/><path class="cls-20" d="M159.82,217.67c1.25-10.44-2.66-19-8.86-21.35a10.59,10.59,0,0,0-7.29,0c-5.95,2.35-9.56,11-7.81,21.35" transform="translate(-50.09 -20.75)"/><rect class="cls-3" x="54.4" y="203.58" width="35" height="43.33" rx="2.58"/><g class="cls-21"><path class="cls-22" d="M100.32,239.33c.78,3,3.94,13.5,14.17,20,10.89,6.94,25.49,6.57,37.5-.83,6.88,17.81,5.15,25.55,1.67,29.17-5.06,5.24-51.67-5-51.67-5h0Z" transform="translate(-50.09 -20.75)"/></g><circle class="cls-22" cx="61.48" cy="207.33" r="2.08"/><circle class="cls-22" cx="81.48" cy="207.33" r="2.08"/><path class="cls-20" d="M131.16,227.67c1-8.36-2.13-15.23-7.09-17.09a8.5,8.5,0,0,0-5.83,0c-4.77,1.88-7.66,8.77-6.25,17.09" transform="translate(-50.09 -20.75)"/><rect class="cls-4" x="320.58" y="210.49" width="30.82" height="38.16" rx="2.58"/><g class="cls-23"><path class="cls-24" d="M367,244.45c.69,2.62,3.47,11.88,12.47,17.61,9.6,6.11,22.45,5.79,33-.73C418.56,277,417,283.83,414,287c-4.45,4.61-45.5-4.41-45.5-4.41h0Z" transform="translate(-50.09 -20.75)"/></g><circle class="cls-24" cx="326.82" cy="213.8" r="1.83"/><circle class="cls-24" cx="344.43" cy="213.8" r="1.83"/><path class="cls-20" d="M394.15,234.18c.88-7.36-1.87-13.41-6.24-15.05a7.51,7.51,0,0,0-5.14,0c-4.19,1.65-6.74,7.72-5.5,15.05" transform="translate(-50.09 -20.75)"/></g></g></svg>